<?xml version="1.0" encoding="UTF-8"?>
<svg xmlns="http://www.w3.org/2000/svg" xmlns:xlink="http://www.w3.org/1999/xlink" width="130px" height="131px" viewBox="0 0 130 131" version="1.1">
<g id="surface1">
<path style=" stroke:none;fill-rule:nonzero;fill:rgb(0%,0%,0%);fill-opacity:1;" d="M 120.714844 65.5 C 120.714844 77.734375 117.167969 88.734375 110.085938 98.507812 C 103 108.277344 93.851562 115.039062 82.628906 118.789062 C 81.320312 119.039062 80.371094 118.863281 79.765625 118.277344 C 79.15625 117.695312 78.855469 116.96875 78.855469 116.089844 L 78.855469 100.664062 C 78.855469 95.929688 77.601562 92.476562 75.085938 90.277344 C 77.839844 89.992188 80.320312 89.550781 82.519531 88.96875 C 84.71875 88.382812 86.996094 87.433594 89.335938 86.113281 C 91.683594 84.800781 93.644531 83.179688 95.214844 81.25 C 96.785156 79.332031 98.070312 76.773438 99.0625 73.574219 C 100.054688 70.386719 100.546875 66.714844 100.546875 62.574219 C 100.546875 56.679688 98.632812 51.660156 94.816406 47.519531 C 96.601562 43.082031 96.414062 38.105469 94.238281 32.605469 C 92.882812 32.167969 90.921875 32.429688 88.359375 33.40625 C 85.796875 34.382812 83.574219 35.453125 81.6875 36.628906 L 78.925781 38.378906 C 74.433594 37.117188 69.785156 36.476562 65 36.476562 C 60.214844 36.476562 55.566406 37.117188 51.074219 38.378906 C 50.296875 37.84375 49.273438 37.1875 47.988281 36.402344 C 46.703125 35.628906 44.6875 34.683594 41.933594 33.589844 C 39.171875 32.496094 37.09375 32.167969 35.691406 32.605469 C 33.5625 38.105469 33.398438 43.082031 35.183594 47.519531 C 31.367188 51.660156 29.453125 56.679688 29.453125 62.574219 C 29.453125 66.714844 29.945312 70.378906 30.9375 73.542969 C 31.929688 76.710938 33.199219 79.269531 34.746094 81.21875 C 36.292969 83.171875 38.246094 84.800781 40.585938 86.113281 C 42.933594 87.433594 45.210938 88.382812 47.410156 88.96875 C 49.605469 89.550781 52.089844 89.992188 54.84375 90.277344 C 52.90625 92.039062 51.726562 94.546875 51.289062 97.808594 C 50.273438 98.296875 49.1875 98.664062 48.027344 98.90625 C 46.863281 99.152344 45.488281 99.273438 43.886719 99.273438 C 42.292969 99.273438 40.710938 98.746094 39.140625 97.699219 C 37.5625 96.652344 36.222656 95.132812 35.109375 93.132812 C 34.191406 91.574219 33.023438 90.300781 31.59375 89.335938 C 30.167969 88.359375 28.96875 87.777344 28 87.574219 L 26.550781 87.359375 C 25.535156 87.359375 24.835938 87.464844 24.445312 87.6875 C 24.058594 87.902344 23.9375 88.183594 24.082031 88.527344 C 24.230469 88.871094 24.445312 89.207031 24.738281 89.550781 C 25.027344 89.894531 25.34375 90.183594 25.683594 90.429688 L 26.191406 90.789062 C 27.253906 91.277344 28.300781 92.207031 29.34375 93.574219 C 30.382812 94.941406 31.144531 96.179688 31.628906 97.296875 L 32.355469 98.976562 C 32.984375 100.832031 34.046875 102.328125 35.546875 103.480469 C 37.046875 104.621094 38.664062 105.351562 40.410156 105.671875 C 42.148438 105.988281 43.832031 106.15625 45.449219 106.179688 C 47.066406 106.207031 48.410156 106.117188 49.472656 105.925781 L 51.144531 105.628906 C 51.144531 107.484375 51.152344 109.652344 51.179688 112.136719 C 51.203125 114.625 51.21875 115.945312 51.21875 116.089844 C 51.21875 116.96875 50.898438 117.695312 50.273438 118.277344 C 49.648438 118.863281 48.679688 119.039062 47.371094 118.789062 C 36.148438 115.039062 27 108.277344 19.914062 98.507812 C 12.832031 88.734375 9.285156 77.734375 9.285156 65.5 C 9.285156 55.3125 11.773438 45.917969 16.757812 37.316406 C 21.742188 28.71875 28.5 21.90625 37.03125 16.886719 C 45.566406 11.867188 54.890625 9.355469 65 9.355469 C 75.109375 9.355469 84.433594 11.867188 92.96875 16.886719 C 101.5 21.90625 108.257812 28.71875 113.242188 37.316406 C 118.226562 45.917969 120.714844 55.3125 120.714844 65.5 Z M 120.714844 65.5 "/>
</g>
</svg>
