<?xml version="1.0" encoding="UTF-8"?>
<svg xmlns="http://www.w3.org/2000/svg" xmlns:xlink="http://www.w3.org/1999/xlink" width="64px" height="64px" viewBox="0 0 64 64" version="1.1">
<g id="surface1">
<path style=" stroke:none;fill-rule:nonzero;fill:rgb(0%,0%,0%);fill-opacity:1;" d="M 59.429688 32 C 59.429688 37.976562 57.683594 43.351562 54.195312 48.125 C 50.707031 52.898438 46.203125 56.203125 40.679688 58.035156 C 40.035156 58.15625 39.566406 58.070312 39.269531 57.785156 C 38.96875 57.5 38.820312 57.144531 38.820312 56.714844 L 38.820312 49.179688 C 38.820312 46.867188 38.203125 45.179688 36.964844 44.105469 C 38.320312 43.964844 39.542969 43.75 40.625 43.464844 C 41.707031 43.179688 42.828125 42.714844 43.980469 42.070312 C 45.136719 41.429688 46.101562 40.636719 46.875 39.695312 C 47.648438 38.757812 48.28125 37.507812 48.769531 35.945312 C 49.257812 34.386719 49.5 32.59375 49.5 30.570312 C 49.5 27.691406 48.558594 25.238281 46.679688 23.214844 C 47.558594 21.046875 47.464844 18.617188 46.394531 15.929688 C 45.726562 15.714844 44.761719 15.84375 43.5 16.320312 C 42.238281 16.796875 41.144531 17.320312 40.214844 17.894531 L 38.855469 18.75 C 36.644531 18.132812 34.355469 17.820312 32 17.820312 C 29.644531 17.820312 27.355469 18.132812 25.144531 18.75 C 24.761719 18.488281 24.257812 18.167969 23.625 17.785156 C 22.992188 17.40625 22 16.945312 20.644531 16.410156 C 19.285156 15.875 18.261719 15.714844 17.570312 15.929688 C 16.523438 18.617188 16.441406 21.046875 17.320312 23.214844 C 15.441406 25.238281 14.5 27.691406 14.5 30.570312 C 14.5 32.59375 14.742188 34.382812 15.230469 35.929688 C 15.71875 37.476562 16.34375 38.726562 17.105469 39.679688 C 17.867188 40.632812 18.828125 41.429688 19.980469 42.070312 C 21.136719 42.714844 22.257812 43.179688 23.339844 43.464844 C 24.421875 43.75 25.644531 43.964844 27 44.105469 C 26.046875 44.964844 25.464844 46.191406 25.25 47.785156 C 24.75 48.023438 24.214844 48.203125 23.644531 48.320312 C 23.070312 48.441406 22.394531 48.5 21.605469 48.5 C 20.820312 48.5 20.042969 48.242188 19.269531 47.730469 C 18.492188 47.21875 17.832031 46.476562 17.285156 45.5 C 16.832031 44.738281 16.257812 44.117188 15.554688 43.644531 C 14.851562 43.167969 14.261719 42.882812 13.785156 42.785156 L 13.070312 42.679688 C 12.570312 42.679688 12.226562 42.730469 12.035156 42.839844 C 11.84375 42.945312 11.785156 43.082031 11.855469 43.25 C 11.929688 43.417969 12.035156 43.582031 12.179688 43.75 C 12.320312 43.917969 12.476562 44.058594 12.644531 44.179688 L 12.894531 44.355469 C 13.417969 44.59375 13.933594 45.046875 14.445312 45.714844 C 14.957031 46.382812 15.332031 46.988281 15.570312 47.535156 L 15.929688 48.355469 C 16.238281 49.261719 16.761719 49.992188 17.5 50.554688 C 18.238281 51.113281 19.035156 51.46875 19.894531 51.625 C 20.75 51.78125 21.578125 51.863281 22.375 51.875 C 23.171875 51.886719 23.832031 51.84375 24.355469 51.75 L 25.179688 51.605469 C 25.179688 52.511719 25.183594 53.570312 25.195312 54.785156 C 25.207031 56 25.214844 56.644531 25.214844 56.714844 C 25.214844 57.144531 25.058594 57.5 24.75 57.785156 C 24.441406 58.070312 23.964844 58.15625 23.320312 58.035156 C 17.796875 56.203125 13.292969 52.898438 9.804688 48.125 C 6.316406 43.351562 4.570312 37.976562 4.570312 32 C 4.570312 27.023438 5.796875 22.433594 8.25 18.230469 C 10.703125 14.03125 14.03125 10.703125 18.230469 8.25 C 22.433594 5.796875 27.023438 4.570312 32 4.570312 C 36.976562 4.570312 41.566406 5.796875 45.769531 8.25 C 49.96875 10.703125 53.296875 14.03125 55.75 18.230469 C 58.203125 22.433594 59.429688 27.023438 59.429688 32 Z M 59.429688 32 "/>
</g>
</svg>
