<?xml version="1.0" encoding="UTF-8"?>
<svg version="1.1" xmlns="http://www.w3.org/2000/svg" width="1890" height="1417">
<path d="M0 0 C5.82762671 5.97705303 5.84382669 13.30823662 5.9375 21.1875 C6.66768195 46.2544057 11.33252326 71.05408619 20.62280273 94.36547852 C21.48974361 96.63687921 22.25809312 98.92695641 23.01171875 101.23828125 C24.28698308 105.13829598 25.87438645 108.7691036 27.66796875 112.45703125 C28.4375 114.5 28.4375 114.5 28.4375 118.5 C29.0975 118.5 29.7575 118.5 30.4375 118.5 C31.31148437 120.24410156 31.31148437 120.24410156 32.203125 122.0234375 C44.1167758 145.43873254 59.32361042 165.54847391 77.4375 184.5 C78.49710938 185.62148438 78.49710938 185.62148438 79.578125 186.765625 C85.65916402 193.04442138 92.47509771 198.41578032 99.36328125 203.77734375 C100.27464844 204.49019531 101.18601562 205.20304688 102.125 205.9375 C102.95386719 206.57558594 103.78273438 207.21367188 104.63671875 207.87109375 C105.23097656 208.40863281 105.82523438 208.94617188 106.4375 209.5 C106.4375 210.16 106.4375 210.82 106.4375 211.5 C107.42943359 211.58894531 107.42943359 211.58894531 108.44140625 211.6796875 C112.66669529 212.8365463 115.78495439 215.16933437 119.375 217.625 C126.23016555 222.17898746 133.05051768 226.10167909 140.51660156 229.59033203 C142.65807397 230.60445585 144.77769662 231.65807848 146.8984375 232.71484375 C177.15159504 247.65255491 210.70537955 254.52255992 244.39038086 255.03442383 C250.49943021 255.20527191 255.14130011 256.50593168 259.8125 260.5625 C262.71330374 264.02115062 262.59994445 266.41511166 262.625 270.875 C262.63917969 272.01710938 262.65335937 273.15921875 262.66796875 274.3359375 C262.44634466 277.37857328 262.11887442 278.99816108 260.4375 281.5 C246.9468501 291.08546177 219.32040866 285.15790602 204.05859375 282.91015625 C200.92293107 282.34819761 197.81715473 281.72141476 194.71191406 281.01123047 C191.95776507 280.39216778 189.19400033 279.82584779 186.4296875 279.25390625 C172.18205466 276.22687858 158.82485384 272.23079937 145.4375 266.5 C144.56834961 266.12939453 143.69919922 265.75878906 142.80371094 265.37695312 C132.41338487 260.90594117 122.26170433 256.12214537 112.4375 250.5 C111.39819336 249.90952881 111.39819336 249.90952881 110.33789062 249.30712891 C108.05330447 248.00538869 105.77554614 246.69247274 103.5 245.375 C102.78948486 244.96709229 102.07896973 244.55918457 101.34692383 244.13891602 C98.11236606 242.24184501 95.11216763 240.32298101 92.265625 237.875 C89.61978377 235.65307808 87.19943976 234.16449724 84.125 232.625 C78.72752995 229.77572329 74.13142363 226.37676283 69.4375 222.5 C68.53 221.79875 67.6225 221.0975 66.6875 220.375 C62.9135343 217.23002859 59.6380043 213.76723954 56.5 210 C54.23333645 207.30653467 51.83319059 205.19540379 49.0703125 203.00390625 C46.14497462 200.30951609 43.81830486 197.11605694 41.38671875 193.98046875 C39.74030442 191.88533228 38.03838547 189.90978115 36.25 187.9375 C33.52461347 184.80916653 31.70234881 181.44968319 29.765625 177.796875 C28.42020352 175.47008726 26.93369197 173.46781339 25.25 171.375 C20.61553659 165.59709911 16.58760013 159.43448714 12.55957031 153.22607422 C11.62007426 151.78085292 10.6671025 150.34440376 9.7109375 148.91015625 C5.30819974 142.02352099 2.42198225 134.53304423 -0.57226562 126.96582031 C-1.61945637 124.35817077 -2.70382801 121.76843383 -3.796875 119.1796875 C-8.40394031 108.22239538 -12.46090501 97.26576478 -15.8215332 85.86376953 C-16.35934928 84.14807424 -16.94514496 82.4471875 -17.55932617 80.75732422 C-20.29886767 73.1468591 -21.52188607 65.91429001 -22.25 57.875 C-22.37028564 56.6480542 -22.49057129 55.4211084 -22.61450195 54.15698242 C-23.52435137 44.61390983 -24.27429074 35.08239929 -24.5625 25.5 C-24.58973145 24.74058105 -24.61696289 23.98116211 -24.64501953 23.19873047 C-24.72125372 20.88245779 -24.77167257 18.56714471 -24.8125 16.25 C-24.84476685 15.2122644 -24.84476685 15.2122644 -24.87768555 14.15356445 C-24.91306062 8.73583851 -23.51128766 4.85478509 -20.0625 0.6875 C-14.8517444 -3.43768152 -5.70133803 -2.40056338 0 0 Z " fill="#F0F0F0" transform="translate(217.5625,536.5)"/>
<path d="M0 0 C1.04125534 0.03599808 1.04125534 0.03599808 2.10354614 0.07272339 C41.44305879 1.50589077 76.91300684 12.58565308 112.5 28.9375 C113.44749115 29.36944672 113.44749115 29.36944672 114.41412354 29.81011963 C122.36983631 33.45747588 129.49451365 37.5141471 136.5 42.75 C138.14240759 43.90073833 139.78788954 45.04711115 141.4375 46.1875 C143.12509178 47.37486957 144.81258982 48.56237238 146.5 49.75 C147.81291016 50.65685547 147.81291016 50.65685547 149.15234375 51.58203125 C155.45863784 56.02448519 161.11223781 60.88893445 166.72265625 66.15625 C168.98310986 68.2672784 171.27290299 70.30588203 173.625 72.3125 C181.16378104 78.86387312 188.12117779 86.06989806 194.5 93.75 C194.91443359 94.24532227 195.32886719 94.74064453 195.75585938 95.25097656 C202.02881501 102.78471665 207.88867122 110.54190391 213.4375 118.625 C213.96875488 119.39690674 214.50000977 120.16881348 215.04736328 120.96411133 C218.06274359 125.41750064 220.80633809 129.94223316 223.35083008 134.6809082 C224.56628033 136.86933838 225.89073232 138.96092656 227.25 141.0625 C235.02698079 153.95064084 240.66780344 168.51960392 245.5 182.75 C245.78085449 183.57242188 246.06170898 184.39484375 246.35107422 185.2421875 C255.29284404 211.85773368 259.56271196 239.27568128 259.75 267.3125 C259.75942627 268.39031738 259.76885254 269.46813477 259.77856445 270.57861328 C259.77429443 271.58520996 259.77002441 272.59180664 259.765625 273.62890625 C259.76336914 274.5216626 259.76111328 275.41441895 259.75878906 276.33422852 C259.48430783 278.89648497 258.7931956 280.54084436 257.5 282.75 C256.84 282.75 256.18 282.75 255.5 282.75 C255.5 283.41 255.5 284.07 255.5 284.75 C250.28916504 287.89425078 244.36969704 287.59158475 238.5 286.75 C234.89550963 284.81414521 232.33260356 282.41520713 230.5 278.75 C230.39467334 277.39996959 230.34472686 276.04538381 230.32421875 274.69140625 C229.63107831 246.66987094 225.10835741 218.14769773 215.5 191.75 C215.19578125 190.79867187 214.8915625 189.84734375 214.578125 188.8671875 C205.16522307 161.65162321 189.20983568 136.44449994 170.5 114.75 C169.72140625 113.84121094 168.9428125 112.93242187 168.140625 111.99609375 C155.66873201 97.8172811 141.98311914 85.57806371 126.5 74.75 C125.68088135 74.17596436 125.68088135 74.17596436 124.84521484 73.59033203 C86.56272889 46.9333442 43.3105231 32.7135492 -3.19946289 30.72094727 C-5.28087338 30.62912384 -7.3609186 30.52071827 -9.44140625 30.41015625 C-11.26200562 30.32713257 -11.26200562 30.32713257 -13.11938477 30.24243164 C-18.75970663 29.42084363 -22.83541071 27.09321694 -26.5 22.75 C-28.32486599 17.27540202 -28.21726665 11.7224833 -26.25 6.3125 C-23.79535538 2.71819895 -22.07835251 1.08320775 -17.77539062 0.17480469 C-11.86635115 -0.59157342 -5.94152122 -0.20624597 0 0 Z " fill="#F0F0F0" transform="translate(456.5,304.25)"/>
<path d="M0 0 C100.95740365 0 100.95740365 0 124 20 C124.7528125 20.64582031 125.505625 21.29164063 126.28125 21.95703125 C141.98390339 36.44971991 147.99825603 58.24445114 149.16845703 78.98583984 C150.15312563 105.308215 147.1752672 133.68254317 128.9375 154.25 C113.28255914 170.94624728 92.06195203 176.548672 70 179 C46.9 179 23.8 179 0 179 C0 119.93 0 60.86 0 0 Z M24 21 C24 66.21 24 111.42 24 158 C67.51978705 160.77769551 67.51978705 160.77769551 106.625 143.5625 C122.9103215 125.99149523 124.72786576 102.76650365 124.13623047 79.87646484 C123.31459947 62.52797657 118.09657575 45.40356897 105.25 33.1875 C83.8431406 15.7250907 47.44861339 21 24 21 Z " fill="#FFFFFF" transform="translate(1357,640)"/>
<path d="M0 0 C42.9 0 85.8 0 130 0 C130 6.93 130 13.86 130 21 C95.02 21 60.04 21 24 21 C24 39.15 24 57.3 24 76 C56.67 76 89.34 76 123 76 C123 82.93 123 89.86 123 97 C90.33 97 57.66 97 24 97 C24 117.13 24 137.26 24 158 C60.3 158 96.6 158 134 158 C134 164.93 134 171.86 134 179 C89.78 179 45.56 179 0 179 C0 119.93 0 60.86 0 0 Z " fill="#FFFFFF" transform="translate(1190,640)"/>
<path d="M0 0 C10.61132547 8.8274458 15.47466322 19.63056997 18 33 C18 34.98 18 36.96 18 39 C10.08 39 2.16 39 -6 39 C-6.53625 37.040625 -7.0725 35.08125 -7.625 33.0625 C-10.51934343 23.78446531 -14.21009947 17.32746486 -22.63671875 12.21484375 C-36.63387734 5.01961016 -54.86196222 5.26274477 -69.8671875 8.953125 C-78.53985546 11.85122352 -84.35264414 16.1780304 -88.75 24.1875 C-91.06996323 30.03839628 -90.65377727 35.90103087 -88.8125 41.8125 C-83.69227756 50.81702912 -74.85989001 54.02928039 -65.37402344 56.75439453 C-59.32569021 58.36232517 -53.23858664 59.80808246 -47.14892578 61.25 C4.56327895 73.56662994 4.56327895 73.56662994 16.59765625 92.515625 C22.65841153 104.03636098 23.95455559 117.12983318 20.875 129.8125 C15.65495189 145.88158818 4.87637607 156.37651902 -10 164 C-13.93841192 165.68145668 -17.8516721 166.94628035 -22 168 C-23.29164062 168.33644531 -23.29164062 168.33644531 -24.609375 168.6796875 C-48.01793162 173.61848702 -75.59830064 170.41479316 -95.8671875 157.4453125 C-108.85027518 148.64724942 -116.74199788 135.28079105 -119.8125 120.0625 C-120.52772409 116.24138567 -121 112.89377173 -121 109 C-113.08 109 -105.16 109 -97 109 C-96.29875 111.454375 -95.5975 113.90875 -94.875 116.4375 C-91.56038029 127.28713638 -86.86509427 134.93266441 -77 141 C-61.50753485 148.97904284 -42.80663036 150.58869179 -25.96875 146.0390625 C-16.93920682 142.87872239 -9.76278443 138.62077719 -4.9765625 130.19921875 C-2.00393241 123.61307042 -1.80527837 116.10938068 -3.80859375 109.21875 C-7.55675084 100.60706726 -13.93182847 97.10990694 -22.35546875 93.69921875 C-33.37846566 89.52468714 -44.98217729 87.1169627 -56.42651367 84.38037109 C-97.61522505 74.48364357 -97.61522505 74.48364357 -108.7890625 58.078125 C-114.98572906 47.44384561 -116.59396142 36.27509833 -114.50390625 24.11328125 C-110.77142146 10.6805535 -102.80404824 1.13019099 -91 -6 C-63.1986245 -20.8648973 -25.39074389 -18.77897853 0 0 Z " fill="#FFFFFF" transform="translate(1135,652)"/>
<path d="M0 0 C107.73529412 0 107.73529412 0 123 15 C133.97215434 27.36861034 136.68729984 42.87342491 136.13183594 58.84472656 C135.38374183 71.0746798 130.26370738 83.71668498 121 92 C99.9049585 107.84700679 76.64957801 107.43159237 51.4375 107.1875 C37.8559375 107.0946875 37.8559375 107.0946875 24 107 C24 130.76 24 154.52 24 179 C16.08 179 8.16 179 0 179 C0 119.93 0 60.86 0 0 Z M24 21 C24 42.45 24 63.9 24 86 C32.78625 86.061875 41.5725 86.12375 50.625 86.1875 C53.36893066 86.21481201 56.11286133 86.24212402 58.93994141 86.27026367 C82.41943872 86.89780449 82.41943872 86.89780449 102.671875 76.5078125 C108.98619048 69.97468411 111.20695589 61.91830897 111.5 53 C111.16712374 43.18551922 108.48647172 35.84912421 101.78125 28.65625 C92.69939659 20.21171964 79.7512895 20.55356563 67.9453125 20.70703125 C66.81923584 20.71005249 65.69315918 20.71307373 64.53295898 20.71618652 C60.39687706 20.73167485 56.26092758 20.77355551 52.125 20.8125 C38.203125 20.9053125 38.203125 20.9053125 24 21 Z " fill="#FFFFFF" transform="translate(537,640)"/>
<path d="M0 0 C7.92 0 15.84 0 24 0 C24.01458252 3.45001465 24.02916504 6.9000293 24.04418945 10.45458984 C24.09475624 21.91384429 24.16124347 33.37297661 24.23571491 44.83209801 C24.28044013 51.77281539 24.3199064 58.71348411 24.34643555 65.65429688 C24.37210175 72.36529569 24.41315939 79.07604615 24.46318626 85.78691483 C24.47974056 88.33422728 24.49132542 90.88157752 24.49761391 93.428936 C24.20262003 123.23158551 24.20262003 123.23158551 36.125 149.875 C50.38759341 160.41691687 66.67474356 161.75296282 83.80078125 159.5 C92.90312672 157.61749377 100.93840552 154.27391338 107 147 C118.00695059 130.16584027 116.32609132 109.30868428 116.4140625 90.0390625 C116.43279924 87.43589684 116.45237447 84.8327371 116.4727478 82.22958374 C116.51861094 76.11373799 116.55611273 69.99789508 116.58942068 63.88196981 C116.62787057 56.90953382 116.67721937 49.93718763 116.72740483 42.96482778 C116.830248 28.64328078 116.9182226 14.32168242 117 0 C124.92 0 132.84 0 141 0 C141.04533026 15.23933517 141.08209519 30.47863946 141.10362434 45.71802521 C141.11389106 52.79560274 141.12786209 59.87313509 141.15087891 66.95068359 C141.17095512 73.12701021 141.18374979 79.30330407 141.18817699 85.47966242 C141.19076057 88.7431561 141.19782125 92.0065355 141.21146011 95.27000427 C141.41263591 145.43889663 141.41263591 145.43889663 125.11328125 164.16796875 C109.66143314 179.38436013 88.02879285 182.25666246 67.36230469 182.2487793 C49.81540099 182.0637247 33.44803324 179.06552515 20 167 C19.30003906 166.38125 18.60007812 165.7625 17.87890625 165.125 C3.92213384 152.03887691 0.59704794 133.55831522 -0.11125183 115.10091782 C-0.28042474 106.94297163 -0.22971021 98.78410725 -0.1953125 90.625 C-0.19157527 88.00227975 -0.18873166 85.37955809 -0.18673706 82.75683594 C-0.18057112 76.60203882 -0.164228 70.44731449 -0.14403808 64.29254913 C-0.12152501 57.2741841 -0.1106473 50.25581521 -0.10064721 43.23742294 C-0.07985619 28.82490606 -0.04324272 14.41246754 0 0 Z " fill="#FFFFFF" transform="translate(704,640)"/>
<path d="M0 0 C2.92089735 2.47833715 3.89604251 4.59262705 4.44140625 8.38452148 C4.50199219 9.37009033 4.56257813 10.35565918 4.625 11.37109375 C4.698396 12.46510498 4.77179199 13.55911621 4.84741211 14.6862793 C4.91839111 15.84168213 4.98937012 16.99708496 5.0625 18.1875 C5.68455953 27.15017285 6.40072363 35.91508822 8.0625 44.75 C8.23136719 45.83667969 8.40023438 46.92335938 8.57421875 48.04296875 C11.49483442 65.10159656 17.74110738 81.7031491 26.03271484 96.86279297 C27.09243944 98.80486768 28.11880116 100.76244639 29.14453125 102.72265625 C36.16421156 115.90073581 44.93891154 127.7251465 55.11328125 138.6484375 C56.85777706 140.52927667 58.49717568 142.45618031 60.125 144.4375 C63.43208513 148.30024713 67.14123508 151.52332307 71.0625 154.75 C72.03832031 155.56339844 73.01414062 156.37679687 74.01953125 157.21484375 C107.39540958 184.54642887 146.49956671 199.2469249 189.4934082 201.03027344 C200.56842084 201.5497869 200.56842084 201.5497869 205.0625 204.75 C207.41740728 208.28236092 207.38993705 209.99720368 207.4375 214.1875 C207.46585938 215.32058594 207.49421875 216.45367188 207.5234375 217.62109375 C206.97072631 221.37297226 206.03727854 222.47864382 203.0625 224.75 C178.63490376 232.89253208 143.21589516 220.76271426 120.0625 212.75 C118.97388672 212.38382568 118.97388672 212.38382568 117.86328125 212.01025391 C93.06158954 203.56676954 71.66092779 188.81707294 52.0625 171.75 C51.20785156 171.03070312 50.35320312 170.31140625 49.47265625 169.5703125 C48.73917969 168.94898438 48.00570312 168.32765625 47.25 167.6875 C46.31220703 166.89666016 46.31220703 166.89666016 45.35546875 166.08984375 C44.0625 164.75 44.0625 164.75 44.0625 162.75 C43.49144531 162.51539063 42.92039062 162.28078125 42.33203125 162.0390625 C39.5330495 160.44927941 37.8635705 158.5501626 35.75 156.125 C34.95851563 155.21878906 34.16703125 154.31257812 33.3515625 153.37890625 C32.59617187 152.51136719 31.84078125 151.64382813 31.0625 150.75 C30.47210938 150.11964844 29.88171875 149.48929688 29.2734375 148.83984375 C23.33346646 142.4353726 18.7545644 135.08307363 14.0625 127.75 C13.68335449 127.16895508 13.30420898 126.58791016 12.91357422 125.98925781 C-8.30023167 93.34830682 -18.71884979 55.1440483 -19.3125 16.4375 C-19.33876465 15.35654053 -19.3650293 14.27558105 -19.39208984 13.16186523 C-19.40771512 5.56137119 -19.40771512 5.56137119 -17.1015625 1.58203125 C-12.35463484 -2.43657719 -5.54330639 -2.35885378 0 0 Z " fill="#EBEBEB" transform="translate(272.9375,537.25)"/>
<path d="M0 0 C2.73879485 1.98183571 5.42596557 4.0266271 8.11694336 6.07299805 C10.09469031 7.47084224 12.0737763 8.86679457 14.05444336 10.26049805 C17.87300098 13.04067596 21.21402607 15.95880812 24.46069336 19.3815918 C26.15828222 21.11521438 27.94164596 22.64439448 29.80444336 24.19799805 C69.6618271 58.93958732 91.95112881 112.49324255 95.58569336 164.3894043 C95.70678632 166.45023003 95.82156624 168.51143827 95.92944336 170.57299805 C95.98269775 171.52231201 96.03595215 172.47162598 96.09082031 173.44970703 C96.3241515 179.31142894 96.46153897 185.14225353 92.61694336 189.94799805 C88.56912291 192.98386338 83.97811756 192.7504358 79.11694336 192.07299805 C75.49162728 190.19883265 73.42572697 187.99934887 72.11694336 184.07299805 C71.95727606 182.22966408 71.84408677 180.38214774 71.75756836 178.53393555 C70.25856312 150.8686751 65.78923477 123.90670186 53.11694336 99.07299805 C52.59825684 98.0361084 52.59825684 98.0361084 52.0690918 96.97827148 C47.11409591 87.0994993 41.70497247 77.96907817 35.11694336 69.07299805 C34.35897461 68.02885742 33.60100586 66.9847168 32.82006836 65.90893555 C23.42069724 53.16929204 12.71009226 41.69251577 0.11694336 32.07299805 C-0.84083008 31.28795898 -1.79860352 30.50291992 -2.78540039 29.6940918 C-34.66237183 4.00760409 -75.01566568 -9.51794239 -115.72485352 -10.35668945 C-121.71417756 -10.57464817 -125.40125279 -11.30369175 -129.66430664 -15.80981445 C-131.8820521 -19.66243637 -131.61330338 -23.63342157 -130.88305664 -27.92700195 C-129.32511743 -31.01196889 -127.39412804 -33.40964139 -124.01196289 -34.56762695 C-84.48516058 -41.24004129 -31.96313718 -22.32447276 0 0 Z " fill="#EBEBEB" transform="translate(559.883056640625,397.927001953125)"/>
<path d="M0 0 C18.08118435 14.80313752 29.41670571 36.7507431 32.62255859 59.81420898 C34.99758125 87.24084046 28.73869282 111.94064412 11.59521484 133.73217773 C-3.94489673 152.15008775 -25.58723095 164.53450866 -49.74023438 166.93286133 C-74.39645585 168.76019599 -99.7351719 164.75345396 -119.59228516 149.04467773 C-121.10097484 147.74217564 -122.60169095 146.43035012 -124.09228516 145.10717773 C-124.76259766 144.57866211 -125.43291016 144.05014648 -126.12353516 143.50561523 C-142.09700188 130.63810038 -153.71426742 108.73890256 -155.92895508 88.41748047 C-156.28355381 83.40168401 -156.27688993 78.38329085 -156.27978516 73.35717773 C-156.29203125 72.25374023 -156.30427734 71.15030273 -156.31689453 70.01342773 C-156.3623306 44.20574182 -146.30693741 22.356749 -128.40478516 3.91967773 C-93.31266101 -30.93575632 -37.35095408 -29.45250123 0 0 Z M-124.46728516 17.48217773 C-139.43883267 35.52481192 -146.76534282 57.73020768 -145.09228516 81.10717773 C-143.85546565 90.73327685 -141.31590098 99.38318493 -137.09228516 108.10717773 C-136.4290625 109.49356445 -136.4290625 109.49356445 -135.75244141 110.90795898 C-125.67373067 130.64659746 -108.25379069 144.96510888 -87.40478516 152.04467773 C-64.31033134 159.08715051 -42.79678763 156.24819668 -21.46728516 145.35717773 C-1.87484361 134.24717808 12.03186182 116.09545262 18.28271484 94.54467773 C18.85142009 92.40585147 19.39622081 90.2604026 19.90771484 88.10717773 C20.09978516 87.35178711 20.29185547 86.59639648 20.48974609 85.81811523 C23.73124327 64.79382511 18.62731053 44.1401524 7.14990234 26.38842773 C5.49061809 24.196629 3.7419353 22.15394734 1.90771484 20.10717773 C1.26576172 19.31311523 0.62380859 18.51905273 -0.03759766 17.70092773 C-8.05648172 8.11377483 -17.83812009 1.22571163 -29.21728516 -3.83032227 C-29.82515869 -4.10062256 -30.43303223 -4.37092285 -31.05932617 -4.64941406 C-41.11712837 -8.83232561 -51.05175499 -10.4338848 -61.90478516 -10.33032227 C-63.0447998 -10.32129883 -64.18481445 -10.31227539 -65.359375 -10.30297852 C-88.37824412 -9.83140117 -108.77420054 0.84262304 -124.46728516 17.48217773 Z " fill="#D9D9DA" transform="translate(515.09228515625,489.892822265625)"/>
<path d="M0 0 C7.92 0 15.84 0 24 0 C24 52.14 24 104.28 24 158 C52.71 158 81.42 158 111 158 C111 164.93 111 171.86 111 179 C74.37 179 37.74 179 0 179 C0 119.93 0 60.86 0 0 Z " fill="#FFFFFF" transform="translate(884,640)"/>
<path d="M0 0 C2.83249234 1.91193233 3.7662871 3.04226462 4.57348633 6.35009766 C4.97150935 8.82298943 5.19665476 11.21109068 5.32421875 13.7109375 C7.76474564 53.31740424 23.92481573 88.74779499 53.39160156 115.59863281 C80.15180869 138.91429597 114.00959386 150.85471989 149.28515625 151.49609375 C152.75738878 152.14058007 153.93038319 153.16763709 156 156 C156.56640625 158.4375 156.56640625 158.4375 156.5625 161 C156.59537109 162.2684375 156.59537109 162.2684375 156.62890625 163.5625 C155.70718164 167.13489851 154.13280233 168.14321053 151 170 C119.49356625 174.57852116 80.61952388 159.97977443 55.3125 142.1875 C19.31447004 114.65638149 -5.18183662 79.04615146 -12.3684082 33.67407227 C-13.13607826 27.53202332 -13.25292756 21.37111877 -13.3125 15.1875 C-13.34150391 14.16462891 -13.37050781 13.14175781 -13.40039062 12.08789062 C-13.46319387 4.71092453 -13.46319387 4.71092453 -11.26171875 1.33203125 C-7.5218927 -0.87052606 -4.20332547 -0.76494342 0 0 Z " fill="#E4E5E5" transform="translate(324,536)"/>
<path d="M0 0 C25.04396303 12.73941505 48.47435732 32.62960945 62.765625 56.98828125 C63.1462207 57.61524902 63.52681641 58.2422168 63.91894531 58.88818359 C78.34698616 82.67935889 87.15189462 108.59209633 87.078125 136.55078125 C87.09423828 137.80697266 87.11035156 139.06316406 87.12695312 140.35742188 C87.12759766 141.55689453 87.12824219 142.75636719 87.12890625 143.9921875 C87.13188721 145.07314697 87.13486816 146.15410645 87.13793945 147.26782227 C86.765625 149.98828125 86.765625 149.98828125 85.38916016 151.8359375 C83.15311883 153.42302247 81.5504603 153.42168751 78.828125 153.42578125 C77.97347656 153.44511719 77.11882812 153.46445312 76.23828125 153.484375 C73.765625 152.98828125 73.765625 152.98828125 71.51171875 151.62109375 C68.77495589 147.49452066 68.99487617 143.28076769 68.765625 138.42578125 C66.41516021 103.92973183 53.87052081 75.42426571 31.765625 48.98828125 C31.01345703 48.03115234 31.01345703 48.03115234 30.24609375 47.0546875 C25.8135653 41.52360733 20.35917985 37.2964485 14.765625 32.98828125 C13.20328125 31.77785156 13.20328125 31.77785156 11.609375 30.54296875 C-13.66158408 11.46502636 -44.02177253 1.77460599 -75.66015625 1.45703125 C-79.03639684 0.84223782 -80.20542539 -0.28116975 -82.234375 -3.01171875 C-83.13930077 -7.05894581 -82.84703105 -10.84475485 -80.921875 -14.51171875 C-65.04639775 -28.62325409 -15.73968533 -7.67103349 0 0 Z " fill="#E6E6E6" transform="translate(511.234375,437.01171875)"/>
<path d="M0 0 C0.66 0.33 1.32 0.66 2 1 C-2.60136502 6.53601728 -7.46398272 11.39863498 -13 16 C-13 13 -13 13 -11.80664062 11.46606445 C-11.26201172 10.937146 -10.71738281 10.40822754 -10.15625 9.86328125 C-9.56972656 9.28642578 -8.98320312 8.70957031 -8.37890625 8.11523438 C-7.75886719 7.52033203 -7.13882812 6.92542969 -6.5 6.3125 C-5.87996094 5.70599609 -5.25992187 5.09949219 -4.62109375 4.47460938 C-3.08735293 2.97626257 -1.54451802 1.48723507 0 0 Z " fill="#7A7A7B" transform="translate(393,488)"/>
<path d="M0 0 C4.10958767 1.45044271 7.43258745 3.51110752 11 6 C8 8 8 8 6 8 C6 6.68 6 5.36 6 4 C5.01 4.33 4.02 4.66 3 5 C2.01 3.35 1.02 1.7 0 0 Z " fill="#777777" transform="translate(520,443)"/>
<path d="M0 0 C3.0916909 2.52956528 3.90931332 5.22454612 5 9 C2.5 7.875 2.5 7.875 0 6 C-0.3125 2.8125 -0.3125 2.8125 0 0 Z " fill="#6D6D6D" transform="translate(673,429)"/>
</svg>
