<?xml version="1.0" standalone="no"?>
<!DOCTYPE svg PUBLIC "-//W3C//DTD SVG 20010904//EN"
 "http://www.w3.org/TR/2001/REC-SVG-20010904/DTD/svg10.dtd">
<svg version="1.0" xmlns="http://www.w3.org/2000/svg"
 width="500.000000pt" height="500.000000pt" viewBox="0 0 500.000000 500.000000"
 preserveAspectRatio="xMidYMid meet">

<g transform="translate(0.000000,500.000000) scale(0.100000,-0.100000)"
fill="#000000" stroke="none">
<path d="M0 2500 l0 -2500 2500 0 2500 0 0 2500 0 2500 -2500 0 -2500 0 0
-2500z m1290 646 c110 -27 268 -76 385 -121 229 -87 295 -117 320 -147 23 -28
33 -58 19 -58 -4 0 -66 21 -138 46 -161 56 -275 84 -342 84 -105 0 -94 -57 32
-164 l77 -66 69 0 70 0 -3 -45 c-2 -35 1 -48 16 -60 37 -27 45 -19 45 45 l0
60 94 0 94 0 11 31 c23 66 15 99 -36 147 -27 25 -39 42 -28 38 11 -5 39 -11
62 -13 51 -7 80 10 123 69 34 46 37 44 15 -9 -29 -70 -16 -123 41 -162 41 -28
38 -38 -7 -22 -61 21 -89 14 -133 -31 l-40 -43 47 -3 c25 -2 70 -2 99 0 41 3
48 5 33 12 -11 5 -36 16 -55 25 l-35 15 48 4 c46 3 169 -34 250 -75 24 -12 27
-12 27 2 0 13 36 15 280 15 l280 0 0 -159 c0 -156 0 -159 24 -174 13 -9 26
-13 30 -10 3 4 6 82 6 175 l0 168 240 0 c251 0 288 -6 304 -45 3 -9 6 -79 6
-155 0 -130 -1 -141 -22 -160 -28 -26 -73 -26 -135 1 -80 35 -143 59 -143 55
0 -2 55 -34 123 -72 176 -97 177 -98 177 -144 l0 -39 -96 -3 -97 -3 94 -61
c141 -93 209 -140 259 -181 75 -62 166 -157 172 -180 29 -109 -231 -61 -717
132 -243 97 -264 107 -240 115 13 5 55 -5 115 -28 126 -45 283 -88 359 -97 70
-8 91 2 91 43 0 32 -104 135 -225 221 -74 53 -92 62 -107 52 -10 -6 -49 -11
-88 -11 l-70 0 0 64 c0 56 -3 67 -22 80 -12 9 -26 16 -30 16 -5 0 -8 -36 -8
-80 l0 -80 -192 -2 -192 -3 146 -64 c81 -34 149 -69 152 -77 3 -8 2 -14 -3
-14 -10 0 -90 36 -237 107 -82 39 -123 53 -154 53 -44 0 -80 21 -80 46 0 12
-29 34 -44 34 -3 0 -6 -18 -6 -40 l0 -40 -43 0 c-54 0 -66 12 -101 107 -15 39
-34 74 -42 77 -18 7 -18 -1 5 -82 28 -101 26 -102 -123 -102 -165 0 -162 -4
-103 153 24 67 42 124 40 127 -3 3 -8 1 -10 -5 -2 -5 -34 -68 -71 -140 -53
-102 -72 -131 -89 -133 l-23 -3 0 188 c0 103 -4 193 -8 199 -4 5 -23 20 -42
31 -27 16 -45 20 -80 16 -27 -3 -101 5 -186 21 -78 14 -146 26 -150 25 -5 0
74 -23 176 -50 239 -65 233 -59 228 -220 -3 -100 -6 -122 -24 -146 -42 -58
-67 -63 -311 -63 l-223 0 0 84 0 84 215 53 c118 29 213 55 211 56 -2 2 -62 -6
-134 -17 -162 -25 -199 -25 -239 0 -39 23 -53 67 -53 168 0 68 2 76 29 103
l29 29 139 0 138 0 -34 23 c-252 170 -413 306 -426 360 -11 43 8 57 79 57 33
-1 86 -7 116 -14z m1730 -1035 c-16 -31 -12 -69 10 -91 26 -26 26 -27 -13 -22
-28 3 -38 -2 -59 -26 l-25 -30 4 43 c4 34 1 47 -16 64 l-21 21 40 0 c32 0 43
5 62 30 25 34 34 39 18 11z m-1734 -176 c11 -66 23 -135 27 -152 l7 -33 -80 0
-80 0 0 41 c0 32 4 42 19 46 16 4 19 11 15 41 -14 106 -25 103 -43 -8 -21
-130 -15 -120 -72 -120 -38 0 -50 3 -46 13 2 7 15 71 27 142 12 72 23 136 26
143 3 9 27 12 91 10 l88 -3 21 -120z m304 112 c38 -19 62 -76 54 -127 -9 -58
-39 -89 -99 -105 -43 -10 -50 -16 -53 -39 -3 -25 -6 -26 -63 -26 l-59 0 0 155
0 155 98 0 c57 0 107 -5 122 -13z m250 -119 c0 -73 3 -143 6 -155 6 -22 4 -23
-70 -23 l-76 0 0 155 0 155 70 0 70 0 0 -132z"/>
<path d="M2400 2460 c0 -177 1 -190 19 -200 11 -5 22 -10 25 -10 3 0 6 33 6
73 0 49 5 80 15 94 9 12 52 41 96 64 55 29 77 45 70 52 -7 7 -33 2 -81 -17
-39 -16 -77 -25 -85 -22 -11 4 -15 22 -15 69 0 58 -2 65 -25 75 l-25 12 0
-190z"/>
<path d="M2776 2611 c-49 -21 -84 -41 -78 -45 6 -4 51 14 99 38 107 55 99 57
-21 7z"/>
<path d="M2939 2633 c-13 -16 -12 -17 4 -4 16 13 21 21 13 21 -2 0 -10 -8 -17
-17z"/>
<path d="M2876 2560 c-40 -43 -56 -70 -42 -70 3 0 26 27 51 60 25 33 44 60 42
60 -2 0 -25 -22 -51 -50z"/>
<path d="M3221 2607 c19 -17 313 -167 325 -167 9 0 14 7 12 17 -2 12 -53 39
-163 85 -141 59 -188 76 -174 65z"/>
<path d="M2143 2545 c3 -11 13 -49 23 -85 17 -65 29 -90 44 -90 4 0 -8 42 -27
93 -33 86 -53 127 -40 82z"/>
<path d="M2046 2485 c-9 -26 -7 -32 5 -12 6 10 9 21 6 23 -2 3 -7 -2 -11 -11z"/>
<path d="M2700 2364 c-87 -99 -106 -134 -73 -134 19 0 173 195 173 219 0 23
-17 8 -100 -85z"/>
<path d="M1494 1966 c-8 -21 -1 -66 11 -69 6 -1 11 17 13 41 3 41 -12 59 -24
28z"/>
</g>
</svg>
