<?xml version="1.0" encoding="UTF-8"?>
<svg xmlns="http://www.w3.org/2000/svg" xmlns:xlink="http://www.w3.org/1999/xlink" width="700px" height="700px" viewBox="0 0 700 700" version="1.1">
<g id="surface1">
<path style=" stroke:none;fill-rule:nonzero;fill:rgb(6.27451%,6.27451%,5.882353%);fill-opacity:1;" d="M 143.496094 313.203125 C 152.3125 313.175781 161.128906 313.148438 170.210938 313.117188 C 172.992188 313.105469 175.777344 313.09375 178.644531 313.082031 C 182.042969 313.074219 182.042969 313.074219 183.636719 313.074219 C 184.75 313.074219 185.859375 313.066406 186.96875 313.058594 C 188.390625 313.050781 189.808594 313.046875 191.226562 313.050781 C 191.746094 313.050781 192.265625 313.046875 192.785156 313.042969 C 197.726562 312.996094 197.726562 312.996094 199.953125 314.546875 C 201.136719 315.722656 201.589844 316.847656 202.058594 318.433594 C 202.128906 318.660156 202.195312 318.890625 202.265625 319.125 C 203.363281 322.84375 204.363281 326.59375 205.378906 330.332031 C 205.691406 331.480469 206.003906 332.628906 206.316406 333.777344 C 206.917969 335.976562 207.515625 338.179688 208.113281 340.382812 C 208.800781 342.902344 209.488281 345.425781 210.175781 347.949219 C 211.695312 353.53125 213.210938 359.113281 214.730469 364.695312 C 215.050781 365.882812 215.375 367.070312 215.699219 368.257812 C 217.621094 375.332031 219.542969 382.410156 221.460938 389.484375 C 220.710938 385.695312 219.960938 381.902344 219.210938 378.109375 C 218.835938 376.226562 218.464844 374.339844 218.09375 372.457031 C 216.398438 363.886719 214.695312 355.320312 212.96875 346.757812 C 212.722656 345.527344 212.476562 344.296875 212.226562 343.066406 C 212.066406 342.261719 211.902344 341.457031 211.742188 340.652344 C 211.664062 340.257812 211.582031 339.867188 211.5 339.460938 C 211.03125 337.117188 210.554688 334.773438 210.082031 332.429688 C 209.785156 330.96875 209.488281 329.507812 209.195312 328.042969 C 209.058594 327.367188 208.921875 326.6875 208.785156 326.007812 C 208.59375 325.082031 208.40625 324.15625 208.222656 323.226562 C 208.167969 322.957031 208.113281 322.691406 208.054688 322.414062 C 207.578125 319.996094 207.410156 318.023438 208.621094 315.820312 C 209.5625 314.414062 210.808594 313.703125 212.386719 313.203125 C 213.34375 313.140625 214.265625 313.113281 215.222656 313.121094 C 215.507812 313.121094 215.789062 313.121094 216.078125 313.117188 C 217.003906 313.117188 217.933594 313.121094 218.859375 313.125 C 219.503906 313.125 220.148438 313.125 220.792969 313.125 C 222.144531 313.125 223.492188 313.128906 224.84375 313.132812 C 226.574219 313.140625 228.308594 313.140625 230.042969 313.140625 C 231.371094 313.140625 232.703125 313.140625 234.03125 313.144531 C 234.671875 313.144531 235.3125 313.144531 235.949219 313.144531 C 236.839844 313.148438 237.730469 313.148438 238.621094 313.152344 C 238.886719 313.152344 239.15625 313.152344 239.429688 313.152344 C 241.25 313.164062 241.25 313.164062 241.621094 313.539062 C 241.65625 313.992188 241.664062 314.453125 241.664062 314.910156 C 241.667969 315.207031 241.667969 315.503906 241.667969 315.808594 C 241.667969 316.140625 241.667969 316.46875 241.667969 316.808594 C 241.667969 317.15625 241.667969 317.503906 241.667969 317.863281 C 241.671875 319.039062 241.671875 320.214844 241.671875 321.390625 C 241.671875 322.226562 241.671875 323.066406 241.675781 323.90625 C 241.675781 325.953125 241.679688 328.003906 241.679688 330.050781 C 241.679688 331.71875 241.679688 333.382812 241.679688 335.050781 C 241.683594 339.773438 241.683594 344.496094 241.683594 349.21875 C 241.683594 349.601562 241.683594 349.601562 241.683594 349.992188 C 241.683594 350.246094 241.683594 350.5 241.683594 350.765625 C 241.683594 354.894531 241.6875 359.023438 241.691406 363.152344 C 241.699219 367.394531 241.699219 371.632812 241.699219 375.875 C 241.699219 378.253906 241.699219 380.636719 241.703125 383.015625 C 241.707031 385.257812 241.707031 387.5 241.703125 389.738281 C 241.703125 390.5625 241.707031 391.382812 241.707031 392.207031 C 241.710938 393.328125 241.707031 394.453125 241.707031 395.578125 C 241.707031 395.898438 241.710938 396.222656 241.710938 396.558594 C 241.691406 400.753906 240.820312 404.191406 237.945312 407.332031 C 235.65625 409.433594 232.925781 410.738281 229.808594 410.746094 C 229.398438 410.75 228.992188 410.753906 228.570312 410.757812 C 228.128906 410.757812 227.683594 410.753906 227.226562 410.753906 C 226.753906 410.757812 226.277344 410.757812 225.804688 410.761719 C 224.515625 410.769531 223.230469 410.769531 221.945312 410.769531 C 221.136719 410.769531 220.332031 410.773438 219.527344 410.773438 C 216.714844 410.78125 213.902344 410.78125 211.089844 410.78125 C 208.476562 410.78125 205.859375 410.789062 203.242188 410.800781 C 200.992188 410.808594 198.742188 410.8125 196.492188 410.8125 C 195.152344 410.8125 193.808594 410.8125 192.46875 410.820312 C 191.203125 410.828125 189.941406 410.828125 188.675781 410.820312 C 187.996094 410.820312 187.316406 410.828125 186.636719 410.832031 C 183.070312 410.808594 180.308594 410.089844 177.6875 407.601562 C 175.457031 405.167969 174.339844 402.273438 174.363281 398.96875 C 174.445312 397.710938 174.757812 396.53125 175.085938 395.316406 C 175.15625 395.039062 175.230469 394.761719 175.304688 394.476562 C 175.539062 393.566406 175.78125 392.65625 176.019531 391.746094 C 176.191406 391.101562 176.359375 390.453125 176.527344 389.808594 C 176.875 388.464844 177.226562 387.121094 177.582031 385.777344 C 178.082031 383.878906 178.574219 381.984375 179.066406 380.085938 C 179.9375 376.738281 180.808594 373.394531 181.683594 370.054688 C 181.9375 369.09375 182.1875 368.136719 182.4375 367.179688 C 185.003906 357.359375 187.585938 347.542969 190.207031 337.734375 C 188.679688 341.722656 187.257812 345.746094 185.867188 349.785156 C 185.234375 351.613281 184.601562 353.4375 183.972656 355.265625 C 183.78125 355.816406 183.78125 355.816406 183.585938 356.378906 C 182.425781 359.730469 181.257812 363.078125 180.082031 366.425781 C 179.699219 367.519531 179.316406 368.613281 178.929688 369.710938 C 178.835938 369.980469 178.742188 370.25 178.644531 370.527344 C 177.84375 372.8125 177.046875 375.101562 176.25 377.386719 C 175.417969 379.785156 174.578125 382.183594 173.738281 384.582031 C 173.023438 386.632812 172.308594 388.6875 171.601562 390.742188 C 171.089844 392.21875 170.574219 393.695312 170.0625 395.171875 C 169.8125 395.882812 169.566406 396.59375 169.324219 397.304688 C 168.984375 398.300781 168.636719 399.292969 168.289062 400.285156 C 168.191406 400.574219 168.089844 400.867188 167.988281 401.167969 C 167.054688 403.796875 165.675781 406.199219 163.574219 408.074219 C 163.238281 408.382812 163.238281 408.382812 162.898438 408.699219 C 156.945312 412.671875 150.964844 410.65625 143.496094 410.65625 C 143.496094 378.496094 143.496094 346.335938 143.496094 313.203125 Z M 143.496094 313.203125 "/>
<path style=" stroke:none;fill-rule:nonzero;fill:rgb(6.27451%,6.27451%,5.882353%);fill-opacity:1;" d="M 358.835938 313.148438 C 359.1875 313.148438 359.535156 313.144531 359.894531 313.140625 C 360.28125 313.140625 360.667969 313.140625 361.066406 313.136719 C 361.671875 313.132812 361.671875 313.132812 362.292969 313.128906 C 363.636719 313.121094 364.984375 313.113281 366.328125 313.109375 C 366.792969 313.109375 367.257812 313.105469 367.71875 313.105469 C 369.648438 313.097656 371.578125 313.089844 373.507812 313.085938 C 376.273438 313.082031 379.035156 313.070312 381.796875 313.050781 C 383.742188 313.039062 385.683594 313.03125 387.628906 313.03125 C 388.789062 313.027344 389.949219 313.023438 391.105469 313.015625 C 392.40625 313.003906 393.703125 313.003906 395 313.007812 C 395.570312 312.996094 395.570312 312.996094 396.152344 312.988281 C 398.820312 313.011719 401.128906 313.539062 403.148438 315.390625 C 404.863281 317.363281 405.074219 318.875 405.03125 321.429688 C 404.894531 323.289062 404.425781 324.996094 403.894531 326.777344 C 403.785156 327.167969 403.671875 327.558594 403.558594 327.960938 C 403.253906 329.019531 402.949219 330.074219 402.636719 331.128906 C 402.3125 332.238281 401.996094 333.347656 401.675781 334.457031 C 401.074219 336.550781 400.464844 338.644531 399.855469 340.738281 C 399.160156 343.121094 398.472656 345.507812 397.785156 347.894531 C 396.371094 352.800781 394.945312 357.703125 393.519531 362.601562 C 394.054688 361.375 394.589844 360.148438 395.121094 358.925781 C 395.273438 358.582031 395.421875 358.238281 395.578125 357.882812 C 396.75 355.191406 397.871094 352.488281 398.960938 349.761719 C 399.488281 348.449219 400.019531 347.132812 400.550781 345.820312 C 400.660156 345.546875 400.769531 345.273438 400.886719 344.988281 C 402.777344 340.308594 404.726562 335.648438 406.667969 330.988281 C 407.34375 329.363281 408.011719 327.734375 408.671875 326.105469 C 408.820312 325.734375 408.972656 325.363281 409.128906 324.980469 C 409.390625 324.332031 409.652344 323.679688 409.914062 323.027344 C 411.511719 319.113281 413.78125 316.050781 417.628906 314.152344 C 419.917969 313.3125 421.984375 313.105469 424.398438 313.121094 C 424.71875 313.121094 425.039062 313.121094 425.371094 313.117188 C 426.425781 313.117188 427.476562 313.121094 428.53125 313.125 C 429.265625 313.125 429.996094 313.125 430.730469 313.125 C 432.265625 313.125 433.796875 313.128906 435.332031 313.132812 C 437.300781 313.136719 439.269531 313.140625 441.238281 313.140625 C 442.75 313.140625 444.261719 313.140625 445.777344 313.144531 C 446.503906 313.144531 447.230469 313.144531 447.957031 313.144531 C 448.96875 313.148438 449.980469 313.148438 450.988281 313.152344 C 451.292969 313.152344 451.59375 313.152344 451.90625 313.152344 C 453.96875 313.164062 453.96875 313.164062 454.34375 313.539062 C 454.375 313.988281 454.386719 314.441406 454.386719 314.894531 C 454.386719 315.332031 454.386719 315.332031 454.386719 315.777344 C 454.386719 316.097656 454.382812 316.421875 454.382812 316.753906 C 454.382812 317.089844 454.382812 317.429688 454.382812 317.777344 C 454.382812 318.898438 454.378906 320.019531 454.378906 321.144531 C 454.375 321.917969 454.375 322.695312 454.375 323.46875 C 454.375 325.515625 454.371094 327.5625 454.367188 329.605469 C 454.363281 331.691406 454.363281 333.777344 454.359375 335.863281 C 454.359375 339.960938 454.351562 344.054688 454.34375 348.152344 C 449.828125 350.554688 445.273438 352.878906 440.699219 355.164062 C 440.015625 355.507812 439.335938 355.847656 438.65625 356.1875 C 437.238281 356.894531 435.824219 357.601562 434.40625 358.3125 C 432.613281 359.207031 430.820312 360.101562 429.03125 361 C 427.628906 361.703125 426.226562 362.402344 424.820312 363.105469 C 424.160156 363.433594 423.503906 363.761719 422.84375 364.09375 C 419.019531 366.007812 415.183594 367.890625 411.320312 369.722656 C 408.390625 371.117188 405.488281 372.5625 402.59375 374.027344 C 406.957031 372.394531 411.320312 370.746094 415.675781 369.09375 C 416.039062 368.957031 416.398438 368.820312 416.769531 368.675781 C 423.386719 366.164062 429.988281 363.617188 436.585938 361.046875 C 437.214844 360.800781 437.84375 360.558594 438.472656 360.316406 C 440.046875 359.710938 441.613281 359.089844 443.175781 358.449219 C 443.492188 358.320312 443.804688 358.195312 444.132812 358.0625 C 444.726562 357.824219 445.320312 357.578125 445.910156 357.328125 C 447.804688 356.574219 449.324219 356.382812 451.320312 356.890625 C 452.78125 357.589844 453.539062 358.285156 454.144531 359.792969 C 454.609375 361.621094 454.476562 363.539062 454.464844 365.414062 C 454.464844 365.902344 454.464844 366.394531 454.464844 366.882812 C 454.46875 368.207031 454.464844 369.53125 454.457031 370.855469 C 454.453125 372.242188 454.453125 373.628906 454.453125 375.015625 C 454.453125 377.34375 454.445312 379.667969 454.4375 381.996094 C 454.429688 384.984375 454.425781 387.972656 454.425781 390.960938 C 454.421875 393.53125 454.417969 396.097656 454.414062 398.667969 C 454.414062 399.492188 454.410156 400.320312 454.410156 401.148438 C 454.410156 402.441406 454.40625 403.738281 454.402344 405.035156 C 454.398438 405.511719 454.398438 405.988281 454.398438 406.464844 C 454.398438 407.113281 454.394531 407.761719 454.390625 408.410156 C 454.390625 408.773438 454.390625 409.136719 454.390625 409.511719 C 454.34375 410.320312 454.34375 410.320312 454.007812 410.65625 C 453.128906 410.695312 452.261719 410.707031 451.382812 410.707031 C 451.105469 410.707031 450.828125 410.710938 450.539062 410.710938 C 449.601562 410.714844 448.660156 410.714844 447.71875 410.71875 C 447.050781 410.71875 446.378906 410.722656 445.707031 410.722656 C 443.878906 410.730469 442.046875 410.734375 440.21875 410.734375 C 439.078125 410.738281 437.933594 410.738281 436.792969 410.742188 C 433.21875 410.75 429.648438 410.753906 426.074219 410.757812 C 421.949219 410.757812 417.824219 410.769531 413.699219 410.78125 C 410.511719 410.792969 407.324219 410.796875 404.136719 410.796875 C 402.230469 410.796875 400.328125 410.800781 398.421875 410.808594 C 396.632812 410.816406 394.839844 410.820312 393.046875 410.816406 C 392.386719 410.816406 391.730469 410.816406 391.074219 410.824219 C 390.175781 410.828125 389.277344 410.824219 388.378906 410.820312 C 388.117188 410.824219 387.859375 410.828125 387.59375 410.832031 C 385.753906 410.8125 384.289062 410.367188 382.765625 409.3125 C 381.542969 407.925781 381.304688 406.691406 381.339844 404.835938 C 381.503906 403.023438 381.992188 401.28125 382.449219 399.523438 C 382.605469 398.90625 382.605469 398.90625 382.765625 398.273438 C 383.042969 397.183594 383.320312 396.09375 383.601562 395.003906 C 383.886719 393.890625 384.171875 392.773438 384.453125 391.660156 C 385.007812 389.476562 385.566406 387.296875 386.125 385.117188 C 386.003906 385.386719 385.882812 385.660156 385.757812 385.9375 C 384.757812 388.179688 383.753906 390.421875 382.746094 392.664062 C 382.636719 392.902344 382.53125 393.144531 382.417969 393.390625 C 382.308594 393.632812 382.203125 393.871094 382.089844 394.121094 C 381.753906 394.875 381.414062 395.628906 381.078125 396.378906 C 380.511719 397.640625 379.945312 398.898438 379.378906 400.160156 C 379.160156 400.644531 378.941406 401.128906 378.722656 401.617188 C 378.417969 402.300781 378.105469 402.988281 377.796875 403.671875 C 377.621094 404.066406 377.445312 404.457031 377.261719 404.859375 C 375.902344 407.582031 374.347656 409.402344 371.425781 410.453125 C 370.113281 410.808594 368.828125 410.789062 367.476562 410.769531 C 367.183594 410.765625 366.886719 410.765625 366.585938 410.765625 C 365.96875 410.765625 365.355469 410.757812 364.738281 410.753906 C 363.792969 410.742188 362.847656 410.738281 361.902344 410.738281 C 361.300781 410.734375 360.703125 410.730469 360.105469 410.726562 C 359.820312 410.722656 359.535156 410.722656 359.242188 410.722656 C 357.265625 410.695312 357.265625 410.695312 356.890625 410.320312 C 356.855469 409.792969 356.84375 409.265625 356.84375 408.738281 C 356.839844 408.394531 356.839844 408.054688 356.835938 407.699219 C 356.835938 407.320312 356.835938 406.941406 356.835938 406.550781 C 356.832031 406.15625 356.832031 405.757812 356.828125 405.351562 C 356.824219 404.257812 356.824219 403.167969 356.820312 402.074219 C 356.820312 401.394531 356.820312 400.710938 356.816406 400.027344 C 356.8125 397.894531 356.808594 395.761719 356.808594 393.628906 C 356.808594 391.164062 356.800781 388.703125 356.792969 386.238281 C 356.785156 384.335938 356.78125 382.433594 356.78125 380.527344 C 356.78125 379.390625 356.777344 378.253906 356.773438 377.117188 C 356.765625 375.847656 356.765625 374.578125 356.769531 373.308594 C 356.765625 372.933594 356.761719 372.558594 356.761719 372.171875 C 356.769531 370.304688 356.808594 368.902344 357.898438 367.308594 C 358.820312 366.539062 359.410156 366.320312 360.601562 366.175781 C 362.410156 366.34375 363.703125 367.066406 365.289062 367.914062 C 365.945312 368.253906 366.601562 368.59375 367.253906 368.929688 C 367.59375 369.105469 367.929688 369.28125 368.28125 369.460938 C 370.003906 370.34375 371.753906 371.179688 373.503906 372.011719 C 373.984375 372.242188 373.984375 372.242188 374.472656 372.476562 C 376.101562 373.253906 377.738281 374.003906 379.40625 374.699219 C 376.546875 372.359375 373.675781 370.039062 370.738281 367.796875 C 368.996094 366.464844 367.277344 365.101562 365.554688 363.746094 C 364.945312 363.269531 364.339844 362.789062 363.730469 362.3125 C 363.425781 362.074219 363.425781 362.074219 363.113281 361.832031 C 362.734375 361.535156 362.355469 361.238281 361.980469 360.941406 C 361.625 360.660156 361.269531 360.378906 360.921875 360.09375 C 360.238281 359.550781 360.238281 359.550781 359.410156 359.046875 C 357.078125 357.460938 357.078125 357.460938 356.582031 355.953125 C 356.472656 354.824219 356.46875 353.742188 356.503906 352.609375 C 356.5 352.1875 356.5 351.765625 356.5 351.328125 C 356.496094 350.175781 356.515625 349.027344 356.539062 347.875 C 356.558594 346.667969 356.558594 345.460938 356.5625 344.253906 C 356.570312 342.230469 356.589844 340.207031 356.617188 338.183594 C 356.65625 335.324219 356.675781 332.46875 356.691406 329.613281 C 356.714844 325.578125 356.746094 321.546875 356.796875 317.511719 C 356.800781 317.113281 356.804688 316.714844 356.808594 316.300781 C 356.816406 315.941406 356.820312 315.578125 356.824219 315.207031 C 356.832031 314.890625 356.835938 314.574219 356.839844 314.25 C 356.933594 312.902344 357.65625 313.15625 358.835938 313.148438 Z M 358.835938 313.148438 "/>
<path style=" stroke:none;fill-rule:nonzero;fill:rgb(6.27451%,6.27451%,5.882353%);fill-opacity:1;" d="M 463.417969 313.203125 C 495.578125 313.203125 527.738281 313.203125 560.875 313.203125 C 560.875 345.363281 560.875 377.523438 560.875 410.65625 C 547.175781 410.65625 547.175781 410.65625 543.964844 408.597656 C 541.507812 405.96875 540.378906 402.699219 539.203125 399.363281 C 538.664062 397.832031 538.109375 396.304688 537.558594 394.777344 C 537.4375 394.441406 537.316406 394.105469 537.191406 393.757812 C 535.660156 389.511719 534.066406 385.289062 532.480469 381.066406 C 532.050781 379.933594 531.625 378.796875 531.199219 377.664062 C 530.488281 375.769531 529.777344 373.871094 529.0625 371.976562 C 527.382812 367.5 525.699219 363.019531 524.019531 358.539062 C 523.535156 357.25 523.046875 355.957031 522.5625 354.664062 C 520.066406 348.023438 517.601562 341.375 515.171875 334.710938 C 516.148438 338.996094 517.238281 343.25 518.371094 347.496094 C 518.550781 348.183594 518.734375 348.867188 518.914062 349.550781 C 519.300781 351.007812 519.6875 352.460938 520.074219 353.914062 C 520.679688 356.195312 521.285156 358.480469 521.890625 360.761719 C 523.683594 367.53125 525.480469 374.300781 527.28125 381.066406 C 527.890625 383.34375 528.496094 385.617188 529.101562 387.894531 C 529.582031 389.710938 530.066406 391.523438 530.550781 393.335938 C 530.847656 394.453125 531.144531 395.570312 531.441406 396.6875 C 531.578125 397.199219 531.714844 397.710938 531.851562 398.222656 C 532.039062 398.917969 532.222656 399.613281 532.410156 400.308594 C 532.511719 400.695312 532.613281 401.082031 532.722656 401.480469 C 533.414062 404.445312 533.304688 406.332031 531.722656 408.933594 C 529.667969 410.871094 527.394531 410.804688 524.722656 410.792969 C 524.144531 410.796875 524.144531 410.796875 523.554688 410.800781 C 522.285156 410.804688 521.011719 410.804688 519.742188 410.804688 C 518.855469 410.804688 517.96875 410.808594 517.082031 410.808594 C 515.226562 410.8125 513.371094 410.8125 511.515625 410.808594 C 509.375 410.804688 507.238281 410.808594 505.097656 410.816406 C 503.03125 410.824219 500.96875 410.828125 498.902344 410.824219 C 498.027344 410.824219 497.152344 410.828125 496.277344 410.832031 C 495.050781 410.835938 493.824219 410.832031 492.597656 410.828125 C 492.238281 410.828125 491.878906 410.832031 491.511719 410.835938 C 488.976562 410.8125 486.789062 410.386719 484.859375 408.652344 C 484.632812 408.304688 484.632812 408.304688 484.402344 407.949219 C 484.242188 407.722656 484.082031 407.496094 483.917969 407.265625 C 482.976562 404.53125 483.652344 401.871094 484.691406 399.28125 C 484.808594 398.972656 484.925781 398.667969 485.046875 398.347656 C 485.304688 397.6875 485.558594 397.023438 485.820312 396.363281 C 486.238281 395.300781 486.648438 394.234375 487.054688 393.167969 C 487.484375 392.050781 487.914062 390.933594 488.34375 389.816406 C 489.683594 386.34375 490.96875 382.855469 492.246094 379.359375 C 492.863281 377.667969 493.484375 375.972656 494.105469 374.28125 C 494.230469 373.9375 494.355469 373.597656 494.484375 373.246094 C 496.367188 368.117188 498.269531 362.996094 500.171875 357.875 C 500.308594 357.507812 500.445312 357.140625 500.582031 356.761719 C 500.835938 356.085938 501.085938 355.40625 501.339844 354.726562 C 502.273438 352.207031 503.179688 349.675781 504.082031 347.144531 C 502.785156 349.726562 501.492188 352.308594 500.199219 354.894531 C 499.597656 356.09375 498.996094 357.292969 498.394531 358.492188 C 497.808594 359.660156 497.222656 360.824219 496.640625 361.992188 C 496.421875 362.429688 496.203125 362.867188 495.984375 363.304688 C 494.589844 366.082031 493.230469 368.875 491.894531 371.683594 C 488.921875 377.914062 485.839844 384.089844 482.761719 390.269531 C 482 391.800781 481.242188 393.335938 480.484375 394.867188 C 479.558594 396.742188 478.632812 398.609375 477.699219 400.476562 C 477.347656 401.183594 476.996094 401.890625 476.648438 402.601562 C 476.164062 403.585938 475.675781 404.570312 475.179688 405.550781 C 475.039062 405.839844 474.898438 406.128906 474.753906 406.429688 C 473.734375 408.441406 472.707031 409.914062 470.476562 410.65625 C 468.144531 410.65625 465.816406 410.65625 463.417969 410.65625 C 463.417969 378.496094 463.417969 346.335938 463.417969 313.203125 Z M 463.417969 313.203125 "/>
<path style=" stroke:none;fill-rule:nonzero;fill:rgb(6.27451%,6.27451%,5.882353%);fill-opacity:1;" d="M 250.695312 313.203125 C 282.746094 313.203125 314.796875 313.203125 347.816406 313.203125 C 347.816406 347.660156 347.816406 347.660156 346.074219 350.253906 C 343.886719 352.390625 341.050781 353.148438 338.050781 353.320312 C 333.027344 353.117188 328.203125 350.828125 323.625 348.957031 C 322.90625 348.667969 322.183594 348.375 321.460938 348.085938 C 319.929688 347.464844 318.398438 346.84375 316.867188 346.222656 C 314.464844 345.246094 312.0625 344.273438 309.660156 343.304688 C 307.207031 342.3125 304.757812 341.320312 302.304688 340.328125 C 294.699219 337.25 287.082031 334.199219 279.460938 331.15625 C 277.917969 330.539062 276.371094 329.921875 274.824219 329.300781 C 272.046875 328.191406 269.269531 327.082031 266.492188 325.972656 C 267.605469 326.832031 268.726562 327.472656 269.984375 328.113281 C 270.195312 328.21875 270.402344 328.328125 270.617188 328.4375 C 271.066406 328.667969 271.515625 328.894531 271.964844 329.125 C 273.15625 329.730469 274.34375 330.339844 275.53125 330.949219 C 275.769531 331.070312 276.007812 331.191406 276.25 331.320312 C 278.152344 332.300781 280.035156 333.316406 281.90625 334.351562 C 284.96875 336.046875 288.074219 337.652344 291.191406 339.246094 C 295.285156 341.34375 299.355469 343.480469 303.375 345.71875 C 304.078125 346.109375 304.785156 346.492188 305.492188 346.875 C 309.808594 349.226562 313.730469 352.058594 315.65625 356.726562 C 316.28125 358.972656 316.203125 361.492188 315.253906 363.636719 C 311.535156 370.132812 304.609375 373.582031 298.453125 377.34375 C 296.492188 378.542969 294.542969 379.757812 292.597656 380.980469 C 290.117188 382.535156 287.632812 384.082031 285.140625 385.621094 C 281.578125 387.824219 278.03125 390.042969 274.480469 392.261719 C 273.105469 393.125 271.730469 393.984375 270.355469 394.84375 C 269.628906 395.296875 268.898438 395.753906 268.171875 396.207031 C 272.226562 394.296875 276.265625 392.359375 280.292969 390.390625 C 281.792969 389.65625 283.296875 388.921875 284.796875 388.1875 C 285.097656 388.042969 285.398438 387.894531 285.710938 387.742188 C 288.488281 386.386719 291.265625 385.035156 294.046875 383.6875 C 294.269531 383.582031 294.492188 383.472656 294.722656 383.359375 C 295.84375 382.820312 296.960938 382.277344 298.082031 381.734375 C 300.144531 380.734375 302.210938 379.734375 304.273438 378.734375 C 305.429688 378.171875 306.585938 377.613281 307.742188 377.050781 C 308.203125 376.828125 308.664062 376.605469 309.128906 376.378906 C 311.898438 375.035156 311.898438 375.035156 312.59375 374.699219 C 313.054688 374.476562 313.515625 374.25 313.980469 374.027344 C 315.132812 373.46875 316.285156 372.910156 317.4375 372.351562 C 320.023438 371.097656 322.605469 369.847656 325.1875 368.59375 C 326.359375 368.023438 327.53125 367.453125 328.707031 366.886719 C 330.664062 365.941406 332.621094 364.996094 334.5625 364.019531 C 335.148438 363.726562 335.734375 363.4375 336.320312 363.144531 C 337.027344 362.796875 337.734375 362.441406 338.4375 362.082031 C 340.5625 361.035156 342.238281 360.398438 344.585938 361.195312 C 344.792969 361.328125 345 361.457031 345.210938 361.59375 C 345.527344 361.78125 345.527344 361.78125 345.847656 361.972656 C 357.28125 373.503906 347.816406 394.414062 347.816406 410.65625 C 315.765625 410.65625 283.714844 410.65625 250.695312 410.65625 C 250.695312 378.496094 250.695312 346.335938 250.695312 313.203125 Z M 250.695312 313.203125 "/>
<path style=" stroke:none;fill-rule:nonzero;fill:rgb(6.27451%,6.27451%,5.882353%);fill-opacity:1;" d="M 118.332031 231.773438 C 118.652344 231.773438 118.96875 231.777344 119.300781 231.777344 C 152.3125 232.324219 187.316406 248.359375 248.6875 272.707031 C 250.03125 273.273438 251.382812 273.828125 252.738281 274.375 C 253.398438 274.640625 254.054688 274.910156 254.710938 275.179688 C 255.5 275.503906 256.289062 275.824219 257.082031 276.136719 C 259.664062 277.210938 261.503906 278.621094 263.464844 280.605469 C 263.738281 280.878906 264.011719 281.152344 264.292969 281.433594 C 267.335938 284.554688 270.308594 289.171875 270.605469 293.605469 C 270.578125 293.863281 270.550781 294.117188 270.523438 294.382812 C 267.707031 293.628906 265.023438 292.570312 262.316406 291.5 C 260.964844 290.964844 259.609375 290.4375 258.253906 289.90625 C 257.980469 289.800781 257.707031 289.695312 257.425781 289.585938 C 253.304688 287.980469 249.148438 286.460938 244.984375 284.972656 C 244.722656 284.878906 244.464844 284.789062 244.195312 284.691406 C 214.527344 273.714844 214.527344 273.714844 183.421875 269.390625 C 183.082031 269.382812 182.738281 269.378906 182.386719 269.375 C 179.683594 269.390625 176.714844 269.625 174.539062 271.382812 C 173.511719 272.4375 173.339844 272.957031 173.296875 274.386719 C 173.402344 280.914062 180.179688 286.867188 184.585938 291.160156 C 185.757812 292.273438 186.957031 293.335938 188.191406 294.382812 C 188.5625 294.710938 188.9375 295.039062 189.308594 295.367188 C 191.902344 297.644531 194.546875 299.832031 197.277344 301.941406 C 198.019531 302.511719 198.753906 303.089844 199.492188 303.664062 C 200.03125 304.085938 200.570312 304.507812 201.105469 304.925781 C 201.484375 305.222656 201.484375 305.222656 201.867188 305.519531 C 203.007812 306.410156 204.15625 307.28125 205.339844 308.113281 C 205.667969 308.351562 206 308.589844 206.335938 308.832031 C 206.335938 308.945312 206.335938 309.054688 206.335938 309.167969 C 204.292969 309.261719 202.253906 309.328125 200.207031 309.371094 C 199.515625 309.390625 198.824219 309.414062 198.132812 309.449219 C 193.09375 309.679688 189.886719 308.988281 185.824219 305.960938 C 184.851562 305.242188 183.839844 304.597656 182.828125 303.941406 C 182.105469 303.460938 181.386719 302.976562 180.671875 302.492188 C 179.886719 301.960938 179.097656 301.433594 178.3125 300.910156 C 178.121094 300.78125 177.929688 300.652344 177.734375 300.519531 C 176.0625 299.402344 174.378906 298.308594 172.691406 297.21875 C 160.609375 289.410156 148.789062 281.050781 137.445312 272.203125 C 137.058594 271.902344 136.671875 271.605469 136.285156 271.304688 C 134.132812 269.632812 132.019531 267.921875 129.945312 266.144531 C 128.839844 265.203125 127.722656 264.285156 126.585938 263.382812 C 124.039062 261.300781 121.667969 259.027344 119.300781 256.746094 C 118.933594 256.394531 118.933594 256.394531 118.558594 256.035156 C 106.765625 244.648438 106.765625 244.648438 106.5 238.199219 C 106.621094 236.550781 107.109375 235.4375 108.210938 234.230469 C 111.300781 232.191406 114.703125 231.75 118.332031 231.773438 Z M 118.332031 231.773438 "/>
<path style=" stroke:none;fill-rule:nonzero;fill:rgb(6.666667%,6.666667%,6.27451%);fill-opacity:1;" d="M 497.695312 413.347656 C 500.785156 413.25 503.871094 413.179688 506.960938 413.136719 C 508.394531 413.117188 509.828125 413.089844 511.265625 413.042969 C 523.152344 412.667969 523.152344 412.667969 528.019531 416.878906 C 528.871094 417.597656 529.800781 418.160156 530.753906 418.734375 C 535.5625 421.796875 540.316406 424.933594 545.050781 428.109375 C 546.09375 428.808594 547.136719 429.503906 548.179688 430.199219 C 549.84375 431.304688 551.496094 432.421875 553.144531 433.550781 C 553.414062 433.734375 553.683594 433.917969 553.957031 434.109375 C 561.289062 439.140625 568.503906 444.300781 575.554688 449.714844 C 576.222656 450.226562 576.890625 450.738281 577.5625 451.246094 C 583.089844 455.460938 588.476562 459.875 593.574219 464.601562 C 594.304688 465.273438 595.046875 465.925781 595.800781 466.570312 C 600.972656 471.070312 608.425781 477.894531 609.414062 484.972656 C 609.472656 486.511719 609.378906 487.671875 608.804688 489.105469 C 605.554688 492.277344 601.042969 492.460938 596.753906 492.441406 C 575.804688 492.0625 554.394531 484.011719 534.769531 477.351562 C 533.605469 476.957031 532.441406 476.570312 531.277344 476.183594 C 511.382812 469.5625 491.839844 461.738281 472.492188 453.671875 C 472.234375 453.566406 471.976562 453.457031 471.710938 453.347656 C 465.105469 450.597656 458.523438 447.789062 451.949219 444.957031 C 451.496094 444.761719 451.496094 444.761719 451.03125 444.558594 C 446.738281 442.710938 442.46875 440.816406 438.214844 438.886719 C 438.214844 438.664062 438.214844 438.441406 438.214844 438.214844 C 438.691406 437.996094 439.164062 437.777344 439.640625 437.5625 C 440.039062 437.382812 440.039062 437.382812 440.445312 437.195312 C 444.707031 435.441406 448.613281 436.953125 452.621094 438.582031 C 453.863281 439.085938 455.113281 439.574219 456.359375 440.0625 C 457 440.3125 457.640625 440.566406 458.277344 440.820312 C 461.253906 441.992188 464.25 443.101562 467.261719 444.179688 C 467.507812 444.265625 467.753906 444.355469 468.007812 444.445312 C 469.484375 444.976562 470.957031 445.5 472.4375 446.023438 C 473.160156 446.277344 473.886719 446.535156 474.613281 446.792969 C 482.453125 449.570312 490.375 452.046875 498.367188 454.34375 C 498.601562 454.414062 498.835938 454.480469 499.078125 454.550781 C 504.207031 456.027344 509.371094 457.277344 514.601562 458.335938 C 514.964844 458.410156 514.964844 458.410156 515.332031 458.484375 C 520.140625 459.457031 524.976562 460.191406 529.894531 460.164062 C 530.386719 460.160156 530.386719 460.160156 530.890625 460.15625 C 533.730469 460.113281 536.589844 460.007812 538.925781 458.210938 C 540.015625 457.03125 540.242188 455.914062 540.214844 454.316406 C 539.503906 450.355469 536.785156 446.976562 534.125 444.101562 C 533.667969 443.605469 533.21875 443.097656 532.773438 442.589844 C 529.527344 438.941406 525.953125 435.617188 522.136719 432.570312 C 521.289062 431.886719 520.457031 431.183594 519.628906 430.476562 C 517.3125 428.488281 514.921875 426.609375 512.480469 424.773438 C 512.234375 424.585938 511.988281 424.398438 511.730469 424.203125 C 508.65625 421.878906 505.566406 419.574219 502.441406 417.316406 C 502.074219 417.050781 502.074219 417.050781 501.699219 416.777344 C 500.65625 416.027344 499.617188 415.296875 498.53125 414.609375 C 498.257812 414.414062 497.980469 414.21875 497.695312 414.019531 C 497.695312 413.796875 497.695312 413.574219 497.695312 413.347656 Z M 497.695312 413.347656 "/>
<path style=" stroke:none;fill-rule:nonzero;fill:rgb(6.666667%,6.666667%,6.27451%);fill-opacity:1;" d="M 317.285156 413.300781 C 317.585938 413.296875 317.886719 413.296875 318.199219 413.292969 C 318.53125 413.292969 318.863281 413.292969 319.207031 413.292969 C 319.730469 413.289062 319.730469 413.289062 320.261719 413.285156 C 321.425781 413.28125 322.585938 413.28125 323.746094 413.277344 C 324.550781 413.277344 325.355469 413.273438 326.160156 413.273438 C 327.851562 413.269531 329.546875 413.265625 331.238281 413.265625 C 333.402344 413.261719 335.566406 413.253906 337.730469 413.246094 C 339.394531 413.238281 341.058594 413.238281 342.726562 413.238281 C 343.523438 413.238281 344.320312 413.234375 345.117188 413.230469 C 346.238281 413.222656 347.355469 413.222656 348.476562 413.226562 C 348.804688 413.222656 349.128906 413.21875 349.464844 413.21875 C 353.257812 413.238281 356.046875 414.261719 358.777344 416.894531 C 363.566406 422.070312 363.472656 428.523438 363.320312 435.148438 C 363.113281 440.027344 361.550781 444.070312 358.570312 447.949219 C 358.101562 448.898438 358.253906 449.300781 358.570312 450.3125 C 358.8125 450.972656 359.058594 451.632812 359.316406 452.285156 C 360.476562 455.261719 361.421875 458.277344 362.265625 461.359375 C 362.425781 461.925781 362.425781 461.925781 362.585938 462.503906 C 362.683594 462.859375 362.777344 463.214844 362.875 463.582031 C 362.960938 463.898438 363.046875 464.214844 363.132812 464.542969 C 363.273438 465.433594 363.273438 465.433594 362.9375 467.113281 C 356.507812 467.113281 350.074219 467.113281 343.445312 467.113281 C 341.9375 463.71875 341.9375 463.71875 341.417969 462.320312 C 341.304688 462.023438 341.195312 461.722656 341.078125 461.414062 C 340.851562 460.800781 340.621094 460.1875 340.394531 459.570312 C 339.804688 458.003906 339.164062 456.515625 338.40625 455.015625 C 338.40625 454.796875 338.40625 454.574219 338.40625 454.34375 C 337.960938 454.457031 337.519531 454.566406 337.0625 454.679688 C 337.050781 455.226562 337.050781 455.226562 337.035156 455.785156 C 337.003906 457.132812 336.972656 458.484375 336.9375 459.832031 C 336.921875 460.414062 336.910156 461 336.894531 461.585938 C 336.875 462.421875 336.855469 463.261719 336.832031 464.097656 C 336.828125 464.363281 336.820312 464.625 336.816406 464.894531 C 336.765625 466.742188 336.765625 466.742188 336.390625 467.113281 C 335.753906 467.148438 335.113281 467.15625 334.476562 467.160156 C 334.066406 467.160156 333.65625 467.160156 333.234375 467.160156 C 332.785156 467.160156 332.335938 467.160156 331.882812 467.160156 C 331.425781 467.160156 330.96875 467.160156 330.507812 467.160156 C 329.546875 467.160156 328.585938 467.160156 327.625 467.160156 C 326.390625 467.15625 325.152344 467.15625 323.917969 467.160156 C 322.972656 467.160156 322.027344 467.160156 321.078125 467.160156 C 320.625 467.160156 320.167969 467.160156 319.710938 467.160156 C 319.078125 467.160156 318.441406 467.160156 317.804688 467.160156 C 317.261719 467.15625 317.261719 467.15625 316.707031 467.15625 C 315.890625 467.113281 315.890625 467.113281 315.554688 466.777344 C 315.519531 466.09375 315.511719 465.410156 315.511719 464.726562 C 315.511719 464.507812 315.511719 464.292969 315.511719 464.066406 C 315.507812 463.335938 315.511719 462.605469 315.511719 461.871094 C 315.511719 461.347656 315.511719 460.828125 315.507812 460.304688 C 315.507812 458.878906 315.507812 457.457031 315.507812 456.035156 C 315.511719 454.546875 315.507812 453.0625 315.507812 451.574219 C 315.507812 449.078125 315.507812 446.582031 315.511719 444.085938 C 315.511719 441.195312 315.511719 438.304688 315.511719 435.414062 C 315.507812 432.9375 315.507812 430.460938 315.507812 427.984375 C 315.507812 426.503906 315.511719 425.023438 315.507812 423.539062 C 315.507812 422.148438 315.507812 420.757812 315.511719 419.363281 C 315.511719 418.851562 315.511719 418.339844 315.511719 417.824219 C 315.507812 417.128906 315.511719 416.433594 315.511719 415.734375 C 315.511719 415.34375 315.511719 414.953125 315.511719 414.550781 C 315.582031 413.152344 316.023438 413.304688 317.285156 413.300781 Z M 317.285156 413.300781 "/>
<path style=" stroke:none;fill-rule:nonzero;fill:rgb(7.058824%,7.058824%,6.666667%);fill-opacity:1;" d="M 162.152344 413.308594 C 162.617188 413.308594 162.617188 413.308594 163.097656 413.308594 C 164.121094 413.308594 165.144531 413.3125 166.167969 413.3125 C 166.878906 413.3125 167.589844 413.3125 168.304688 413.316406 C 170.175781 413.316406 172.042969 413.320312 173.914062 413.324219 C 175.824219 413.328125 177.734375 413.328125 179.644531 413.328125 C 183.390625 413.332031 187.132812 413.339844 190.878906 413.347656 C 191.285156 414.160156 191.253906 414.667969 191.253906 415.574219 C 191.253906 415.898438 191.253906 416.222656 191.253906 416.554688 C 191.25 416.902344 191.25 417.253906 191.246094 417.613281 C 191.246094 418.148438 191.246094 418.148438 191.246094 418.695312 C 191.242188 419.839844 191.238281 420.980469 191.234375 422.125 C 191.234375 422.898438 191.230469 423.671875 191.230469 424.449219 C 191.226562 426.347656 191.222656 428.25 191.214844 430.148438 C 189.664062 430.496094 188.230469 430.46875 186.652344 430.371094 C 186.375 430.355469 186.09375 430.339844 185.804688 430.324219 C 184.90625 430.273438 184.007812 430.222656 183.105469 430.167969 C 179.609375 429.964844 176.117188 429.78125 172.609375 429.769531 C 172.222656 429.769531 172.222656 429.769531 171.828125 429.765625 C 169.582031 429.773438 167.042969 429.800781 165.003906 430.820312 C 165.003906 431.597656 165.003906 432.375 165.003906 433.171875 C 166.914062 433.980469 168.738281 433.953125 170.777344 433.992188 C 177.019531 434.191406 182.6875 434.410156 187.257812 439.101562 C 190.910156 443.074219 191.480469 448.203125 191.332031 453.394531 C 191.117188 457.335938 189.644531 460.84375 186.71875 463.523438 C 183.390625 466.148438 179.335938 466.910156 175.175781 467.003906 C 174.828125 467.015625 174.476562 467.027344 174.113281 467.039062 C 168.941406 467.179688 163.761719 467.175781 158.582031 467.175781 C 157.070312 467.175781 155.554688 467.183594 154.039062 467.1875 C 152.863281 467.191406 151.6875 467.191406 150.515625 467.191406 C 149.953125 467.191406 149.394531 467.195312 148.835938 467.195312 C 148.0625 467.199219 147.289062 467.199219 146.515625 467.195312 C 146.078125 467.195312 145.636719 467.199219 145.1875 467.199219 C 144.167969 467.113281 144.167969 467.113281 143.496094 466.441406 C 143.425781 465.804688 143.425781 465.804688 143.445312 465.019531 C 143.449219 464.726562 143.457031 464.433594 143.460938 464.128906 C 143.472656 463.8125 143.480469 463.492188 143.492188 463.167969 C 143.5 462.839844 143.507812 462.515625 143.515625 462.179688 C 143.53125 461.488281 143.550781 460.800781 143.570312 460.113281 C 143.601562 459.054688 143.625 457.996094 143.648438 456.9375 C 143.667969 456.269531 143.683594 455.601562 143.699219 454.933594 C 143.707031 454.613281 143.714844 454.296875 143.722656 453.96875 C 143.734375 453.675781 143.742188 453.382812 143.75 453.078125 C 143.761719 452.691406 143.761719 452.691406 143.773438 452.292969 C 143.832031 451.65625 143.832031 451.65625 144.167969 450.984375 C 144.394531 450.984375 144.621094 450.988281 144.851562 450.988281 C 147.222656 451.003906 149.59375 451.015625 151.96875 451.019531 C 152.851562 451.023438 153.734375 451.027344 154.617188 451.035156 C 155.890625 451.042969 157.167969 451.046875 158.441406 451.050781 C 158.832031 451.054688 159.222656 451.058594 159.621094 451.058594 C 164.011719 451.230469 164.011719 451.230469 167.988281 449.839844 C 168.460938 449.289062 168.460938 449.289062 168.257812 448.402344 C 168.183594 448.144531 168.105469 447.886719 168.027344 447.625 C 166.824219 447.222656 165.882812 447.261719 164.613281 447.277344 C 164.125 447.28125 163.640625 447.285156 163.152344 447.289062 C 162.390625 447.300781 161.628906 447.308594 160.863281 447.320312 C 156.082031 447.386719 151.433594 447.199219 147.675781 443.804688 C 144.195312 439.851562 143.207031 435.347656 143.433594 430.214844 C 143.847656 425.140625 145.976562 420.046875 149.878906 416.707031 C 151.175781 415.898438 152.503906 415.273438 153.914062 414.691406 C 154.167969 414.582031 154.421875 414.46875 154.683594 414.355469 C 157.132812 413.359375 159.554688 413.296875 162.152344 413.308594 Z M 162.152344 413.308594 "/>
<path style=" stroke:none;fill-rule:nonzero;fill:rgb(7.058824%,7.058824%,6.666667%);fill-opacity:1;" d="M 269.40625 413.308594 C 269.707031 413.308594 270.007812 413.308594 270.320312 413.308594 C 271.320312 413.308594 272.320312 413.3125 273.320312 413.3125 C 274.011719 413.3125 274.703125 413.3125 275.394531 413.316406 C 277.21875 413.316406 279.042969 413.320312 280.867188 413.324219 C 282.730469 413.328125 284.589844 413.328125 286.449219 413.328125 C 290.101562 413.332031 293.753906 413.339844 297.40625 413.347656 C 297.933594 414.8125 298.265625 416.234375 298.523438 417.769531 C 298.566406 418.003906 298.605469 418.234375 298.644531 418.472656 C 298.773438 419.242188 298.902344 420.011719 299.03125 420.78125 C 299.121094 421.332031 299.214844 421.878906 299.304688 422.425781 C 299.550781 423.875 299.792969 425.324219 300.035156 426.769531 C 300.222656 427.914062 300.417969 429.058594 300.609375 430.203125 C 301.417969 435.003906 302.222656 439.808594 302.992188 444.617188 C 303.058594 445.027344 303.058594 445.027344 303.125 445.445312 C 303.167969 445.714844 303.210938 445.984375 303.257812 446.265625 C 304.070312 451.328125 304.9375 456.371094 305.949219 461.402344 C 306.101562 462.175781 306.253906 462.949219 306.40625 463.726562 C 306.476562 464.066406 306.476562 464.066406 306.546875 464.414062 C 306.757812 465.488281 306.832031 466.058594 306.480469 467.113281 C 297.164062 467.113281 287.851562 467.113281 278.253906 467.113281 C 278.253906 462.574219 278.253906 462.574219 278.460938 460.519531 C 278.503906 460.082031 278.550781 459.644531 278.59375 459.191406 C 278.617188 458.972656 278.640625 458.753906 278.664062 458.527344 C 278.738281 457.84375 278.804688 457.160156 278.871094 456.476562 C 279.214844 453.136719 279.214844 453.136719 279.597656 451.992188 C 280.859375 451.492188 282.183594 451.660156 283.515625 451.710938 C 284.394531 451.714844 284.394531 451.714844 285.308594 450.984375 C 285.132812 449.339844 284.949219 447.699219 284.761719 446.058594 C 284.671875 445.230469 284.578125 444.402344 284.488281 443.574219 C 284.355469 442.316406 284.214844 441.058594 284.070312 439.800781 C 284.015625 439.292969 283.960938 438.785156 283.90625 438.277344 C 283.617188 435.574219 283.292969 433.035156 282.285156 430.484375 C 281.625 430.5625 281.625 430.5625 280.941406 430.820312 C 279.753906 433.511719 279.40625 436.488281 278.914062 439.371094 C 278.820312 439.910156 278.726562 440.453125 278.632812 440.996094 C 278.433594 442.128906 278.238281 443.265625 278.046875 444.398438 C 277.800781 445.828125 277.554688 447.257812 277.304688 448.683594 C 277.109375 449.804688 276.914062 450.925781 276.722656 452.046875 C 276.632812 452.570312 276.539062 453.097656 276.449219 453.621094 C 275.667969 458.109375 275.121094 462.585938 274.554688 467.113281 C 268.679688 467.113281 262.800781 467.113281 256.746094 467.113281 C 256.746094 465.4375 256.785156 464.277344 257.125 462.703125 C 257.207031 462.304688 257.289062 461.910156 257.375 461.5 C 257.46875 461.074219 257.5625 460.644531 257.65625 460.203125 C 257.753906 459.746094 257.847656 459.289062 257.945312 458.828125 C 258.152344 457.847656 258.355469 456.863281 258.5625 455.882812 C 260.375 447.273438 262.015625 438.65625 263.359375 429.960938 C 263.429688 429.523438 263.496094 429.085938 263.566406 428.636719 C 264.097656 425.203125 264.621094 421.769531 265.101562 418.328125 C 265.144531 418.011719 265.191406 417.695312 265.234375 417.371094 C 265.316406 416.785156 265.398438 416.199219 265.476562 415.613281 C 265.566406 414.964844 265.6875 414.324219 265.820312 413.683594 C 266.933594 413.125 268.179688 413.304688 269.40625 413.308594 Z M 269.40625 413.308594 "/>
<path style=" stroke:none;fill-rule:nonzero;fill:rgb(7.058824%,7.058824%,6.666667%);fill-opacity:1;" d="M 202.8125 413.304688 C 203.207031 413.300781 203.597656 413.300781 204.003906 413.300781 C 204.4375 413.300781 204.871094 413.300781 205.320312 413.300781 C 205.777344 413.300781 206.238281 413.300781 206.699219 413.300781 C 207.949219 413.300781 209.199219 413.300781 210.449219 413.300781 C 211.757812 413.300781 213.0625 413.300781 214.367188 413.300781 C 216.5625 413.300781 218.757812 413.300781 220.949219 413.300781 C 223.488281 413.304688 226.027344 413.304688 228.570312 413.300781 C 230.746094 413.300781 232.921875 413.300781 235.101562 413.300781 C 236.402344 413.300781 237.703125 413.300781 239.007812 413.300781 C 240.230469 413.300781 241.453125 413.300781 242.675781 413.300781 C 243.339844 413.300781 244.007812 413.300781 244.671875 413.300781 C 245.261719 413.300781 245.261719 413.300781 245.863281 413.304688 C 246.378906 413.304688 246.378906 413.304688 246.902344 413.304688 C 247.671875 413.347656 247.671875 413.347656 248.007812 413.683594 C 248.042969 414.328125 248.054688 414.976562 248.054688 415.621094 C 248.058594 416.039062 248.0625 416.453125 248.0625 416.878906 C 248.0625 417.335938 248.0625 417.792969 248.0625 418.25 C 248.066406 418.714844 248.066406 419.179688 248.066406 419.644531 C 248.070312 420.621094 248.070312 421.597656 248.070312 422.574219 C 248.070312 423.824219 248.074219 425.078125 248.082031 426.328125 C 248.085938 427.289062 248.085938 428.25 248.085938 429.210938 C 248.085938 429.675781 248.085938 430.136719 248.089844 430.597656 C 248.09375 431.242188 248.089844 431.890625 248.089844 432.535156 C 248.089844 432.902344 248.089844 433.269531 248.089844 433.648438 C 248.007812 434.515625 248.007812 434.515625 247.335938 435.191406 C 246.503906 435.285156 246.503906 435.285156 245.46875 435.304688 C 244.910156 435.320312 244.910156 435.320312 244.339844 435.335938 C 243.949219 435.34375 243.558594 435.351562 243.15625 435.359375 C 242.386719 435.371094 241.617188 435.390625 240.847656 435.410156 C 240.503906 435.417969 240.160156 435.421875 239.808594 435.429688 C 238.855469 435.464844 238.855469 435.464844 237.925781 436.199219 C 237.5 437.480469 237.535156 438.691406 237.527344 440.03125 C 237.523438 440.316406 237.519531 440.605469 237.519531 440.902344 C 237.511719 441.527344 237.507812 442.152344 237.503906 442.777344 C 237.496094 443.765625 237.488281 444.753906 237.476562 445.742188 C 237.453125 448.199219 237.433594 450.652344 237.414062 453.105469 C 237.394531 455.179688 237.378906 457.253906 237.359375 459.328125 C 237.347656 460.304688 237.339844 461.28125 237.335938 462.257812 C 237.328125 462.851562 237.324219 463.445312 237.316406 464.042969 C 237.316406 464.316406 237.316406 464.589844 237.3125 464.871094 C 237.292969 466.742188 237.292969 466.742188 236.917969 467.113281 C 236.160156 467.148438 235.398438 467.160156 234.636719 467.164062 C 234.28125 467.164062 234.28125 467.164062 233.917969 467.167969 C 233.125 467.171875 232.332031 467.171875 231.542969 467.171875 C 230.996094 467.171875 230.445312 467.171875 229.898438 467.175781 C 228.75 467.175781 227.597656 467.175781 226.449219 467.175781 C 224.972656 467.175781 223.496094 467.179688 222.019531 467.1875 C 220.886719 467.191406 219.753906 467.191406 218.625 467.191406 C 218.078125 467.191406 217.535156 467.195312 216.988281 467.195312 C 216.230469 467.199219 215.46875 467.199219 214.707031 467.195312 C 214.277344 467.195312 213.84375 467.199219 213.394531 467.199219 C 212.386719 467.113281 212.386719 467.113281 211.714844 466.441406 C 211.632812 465.800781 211.632812 465.800781 211.640625 465.003906 C 211.644531 464.703125 211.644531 464.402344 211.644531 464.09375 C 211.648438 463.765625 211.65625 463.4375 211.660156 463.097656 C 211.664062 462.753906 211.664062 462.410156 211.667969 462.058594 C 211.710938 457.558594 211.820312 453.058594 211.933594 448.558594 C 211.960938 447.421875 211.984375 446.285156 212.007812 445.152344 C 212.019531 444.8125 212.027344 444.472656 212.035156 444.125 C 212.285156 440.09375 212.285156 440.09375 210.9375 436.492188 C 209.597656 435.558594 208.476562 435.480469 206.867188 435.417969 C 206.523438 435.40625 206.179688 435.390625 205.824219 435.375 C 205.464844 435.363281 205.109375 435.351562 204.742188 435.335938 C 204.378906 435.320312 204.015625 435.308594 203.640625 435.292969 C 202.75 435.257812 201.855469 435.222656 200.960938 435.191406 C 200.429688 434.125 200.492188 432.976562 200.433594 431.808594 C 200.421875 431.515625 200.40625 431.222656 200.390625 430.921875 C 200.15625 425.179688 200.261719 419.425781 200.289062 413.683594 C 201.171875 413.242188 201.824219 413.304688 202.8125 413.304688 Z M 202.8125 413.304688 "/>
<path style=" stroke:none;fill-rule:nonzero;fill:rgb(8.235294%,8.235294%,7.843138%);fill-opacity:1;" d="M 301.441406 251.03125 C 301.855469 252.28125 301.652344 252.523438 301.117188 253.695312 C 300.96875 254.035156 300.816406 254.375 300.660156 254.722656 C 300.496094 255.09375 300.328125 255.460938 300.160156 255.84375 C 294.042969 269.363281 294.042969 269.363281 294.71875 283.628906 C 299.046875 292.980469 310.824219 298.199219 319.25 303.121094 C 319.140625 303.34375 319.027344 303.5625 318.914062 303.792969 C 318.59375 303.652344 318.59375 303.652344 318.261719 303.507812 C 313.949219 301.625 309.625 299.839844 305.199219 298.246094 C 304.632812 298.042969 304.632812 298.042969 304.054688 297.832031 C 297.859375 295.636719 291.523438 294.191406 285.269531 296.945312 C 281.902344 298.785156 278.722656 302.207031 276.75 305.460938 C 276.609375 305.691406 276.46875 305.921875 276.320312 306.160156 C 276.046875 306.617188 275.78125 307.078125 275.527344 307.546875 C 275.132812 308.207031 274.816406 308.683594 274.21875 309.167969 C 273.183594 309.359375 272.234375 309.308594 271.195312 309.167969 C 271.273438 308.921875 271.351562 308.675781 271.429688 308.421875 C 271.789062 307.285156 272.144531 306.148438 272.496094 305.011719 C 272.621094 304.621094 272.742188 304.234375 272.867188 303.832031 C 274.550781 298.421875 275.902344 292.320312 273.210938 286.988281 C 268.285156 278.609375 257.734375 273.726562 249.6875 268.84375 C 250.996094 268.40625 251.363281 268.703125 252.605469 269.25 C 252.996094 269.417969 253.386719 269.585938 253.789062 269.757812 C 253.996094 269.847656 254.207031 269.9375 254.417969 270.03125 C 258.023438 271.597656 261.648438 273.023438 265.378906 274.261719 C 265.742188 274.382812 266.109375 274.507812 266.488281 274.632812 C 271.371094 276.226562 277.265625 277.492188 282.171875 275.3125 C 291.34375 270.417969 296.347656 259.609375 301.441406 251.03125 Z M 301.441406 251.03125 "/>
<path style=" stroke:none;fill-rule:nonzero;fill:rgb(10.588235%,10.588235%,10.196079%);fill-opacity:1;" d="M 444.933594 413.347656 C 445.378906 413.347656 445.824219 413.347656 446.28125 413.347656 C 445.90625 415.144531 445.449219 416.867188 444.894531 418.617188 C 444.011719 421.691406 443.53125 425.160156 445.109375 428.089844 C 448.511719 432.96875 454.390625 435.886719 459.386719 438.886719 C 458.714844 439.222656 458.714844 439.222656 457.945312 438.972656 C 457.628906 438.839844 457.3125 438.707031 456.988281 438.566406 C 456.636719 438.421875 456.285156 438.273438 455.921875 438.125 C 455.546875 437.96875 455.171875 437.808594 454.785156 437.648438 C 447.367188 434.472656 447.367188 434.472656 439.515625 434.980469 C 433.992188 437.546875 430.796875 444.644531 427.796875 449.640625 C 427.460938 448.96875 427.460938 448.96875 427.710938 448.199219 C 427.84375 447.882812 427.976562 447.566406 428.117188 447.242188 C 428.261719 446.890625 428.40625 446.539062 428.558594 446.175781 C 428.714844 445.800781 428.875 445.425781 429.035156 445.039062 C 432.207031 437.621094 432.207031 437.621094 431.703125 429.769531 C 429.898438 425.859375 425.933594 423.609375 422.417969 421.410156 C 421.914062 421.09375 421.40625 420.773438 420.902344 420.453125 C 419.617188 419.648438 418.332031 418.847656 417.042969 418.050781 C 417.714844 417.714844 417.714844 417.714844 418.488281 417.964844 C 418.804688 418.097656 419.125 418.230469 419.453125 418.371094 C 419.804688 418.515625 420.160156 418.660156 420.523438 418.8125 C 420.898438 418.96875 421.277344 419.128906 421.664062 419.289062 C 428.828125 422.410156 428.828125 422.410156 436.460938 422.148438 C 439.820312 420.652344 442.011719 417.796875 443.894531 414.746094 C 444.25 414.195312 444.25 414.195312 444.933594 413.347656 Z M 444.933594 413.347656 "/>
<path style=" stroke:none;fill-rule:nonzero;fill:rgb(8.627451%,8.627451%,8.235294%);fill-opacity:1;" d="M 329.332031 308.832031 C 329.332031 308.945312 329.332031 309.054688 329.332031 309.167969 C 314.441406 310.042969 302.644531 309.941406 289.292969 302.445312 C 288.546875 302.046875 287.785156 301.726562 286.988281 301.441406 C 288.394531 299.761719 290.800781 299.601562 292.851562 299.191406 C 305.316406 298.097656 318.105469 304.03125 329.332031 308.832031 Z M 329.332031 308.832031 "/>
<path style=" stroke:none;fill-rule:nonzero;fill:rgb(10.980392%,10.980392%,10.588235%);fill-opacity:1;" d="M 383.773438 413.347656 C 390.09375 412.667969 394.566406 413.859375 400.175781 416.6875 C 402.765625 417.988281 405.421875 419.136719 408.078125 420.292969 C 408.957031 420.675781 409.832031 421.0625 410.707031 421.449219 C 413.683594 422.765625 416.675781 424.03125 419.707031 425.214844 C 420.589844 425.566406 421.46875 425.914062 422.347656 426.265625 C 423.175781 426.589844 424.011719 426.902344 424.847656 427.210938 C 428.4375 428.605469 428.4375 428.605469 429.445312 430.070312 C 430.089844 431.765625 430.308594 433.390625 430.148438 435.191406 C 426.476562 433.863281 422.96875 432.246094 419.4375 430.589844 C 418.828125 430.304688 418.21875 430.023438 417.609375 429.738281 C 416.671875 429.300781 415.730469 428.863281 414.789062 428.421875 C 412.742188 427.46875 410.691406 426.515625 408.636719 425.574219 C 408.363281 425.449219 408.09375 425.324219 407.816406 425.195312 C 407.414062 425.011719 407.414062 425.011719 407 424.820312 C 402.21875 422.625 397.445312 420.40625 392.6875 418.15625 C 392.128906 417.894531 391.570312 417.628906 391.011719 417.367188 C 390.234375 417 389.460938 416.636719 388.6875 416.269531 C 388.460938 416.160156 388.238281 416.054688 388.003906 415.945312 C 386.554688 415.253906 385.160156 414.496094 383.773438 413.683594 C 383.773438 413.570312 383.773438 413.460938 383.773438 413.347656 Z M 383.773438 413.347656 "/>
<path style=" stroke:none;fill-rule:nonzero;fill:rgb(98.823529%,98.823529%,98.823529%);fill-opacity:1;" d="M 337.691406 426.703125 C 338.742188 426.789062 338.742188 426.789062 339.351562 427.230469 C 340.554688 428.941406 340.175781 431.304688 340.191406 433.300781 C 340.203125 433.714844 340.210938 434.128906 340.222656 434.554688 C 340.222656 434.953125 340.226562 435.351562 340.230469 435.765625 C 340.234375 436.128906 340.238281 436.496094 340.246094 436.871094 C 340.046875 438.121094 339.640625 438.679688 338.742188 439.558594 C 337.648438 439.664062 337.648438 439.664062 336.726562 439.558594 C 336.203125 438.511719 336.34375 437.40625 336.34375 436.257812 C 336.34375 436 336.34375 435.742188 336.34375 435.472656 C 336.34375 434.925781 336.34375 434.378906 336.347656 433.828125 C 336.347656 432.988281 336.347656 432.144531 336.34375 431.300781 C 336.34375 430.769531 336.34375 430.238281 336.34375 429.707031 C 336.34375 429.453125 336.34375 429.199219 336.34375 428.9375 C 336.351562 426.820312 336.351562 426.820312 337.691406 426.703125 Z M 337.691406 426.703125 "/>
<path style=" stroke:none;fill-rule:nonzero;fill:rgb(24.705882%,24.705882%,24.313726%);fill-opacity:1;" d="M 301.441406 251.03125 C 301.820312 252.167969 301.765625 252.285156 301.292969 253.316406 C 301.1875 253.554688 301.082031 253.792969 300.96875 254.039062 C 300.855469 254.289062 300.738281 254.535156 300.621094 254.792969 C 300.507812 255.042969 300.394531 255.296875 300.277344 255.554688 C 299.996094 256.175781 299.710938 256.796875 299.425781 257.417969 C 299.089844 257.417969 298.757812 257.417969 298.414062 257.417969 C 298.195312 257.527344 297.972656 257.640625 297.742188 257.753906 C 298.292969 256.195312 299.109375 254.851562 299.96875 253.449219 C 300.109375 253.214844 300.253906 252.980469 300.398438 252.742188 C 300.746094 252.171875 301.09375 251.601562 301.441406 251.03125 Z M 301.441406 251.03125 "/>
<path style=" stroke:none;fill-rule:nonzero;fill:rgb(36.078432%,36.078432%,36.078432%);fill-opacity:1;" d="M 249.6875 268.507812 C 250.917969 268.71875 252 269.058594 253.152344 269.535156 C 253.449219 269.65625 253.746094 269.78125 254.050781 269.90625 C 254.277344 270 254.5 270.089844 254.730469 270.1875 C 254.394531 270.355469 254.394531 270.355469 254.058594 270.523438 C 254.058594 270.746094 254.058594 270.96875 254.058594 271.195312 C 252.46875 270.648438 251.050781 269.8125 249.6875 268.84375 C 249.6875 268.730469 249.6875 268.621094 249.6875 268.507812 Z M 249.6875 268.507812 "/>
<path style=" stroke:none;fill-rule:nonzero;fill:rgb(39.215687%,39.215687%,39.215687%);fill-opacity:1;" d="M 314.882812 301.105469 C 315.992188 301.234375 316.863281 301.75 317.824219 302.300781 C 318.226562 302.53125 318.226562 302.53125 318.636719 302.765625 C 318.839844 302.882812 319.042969 303 319.25 303.121094 C 319.140625 303.34375 319.027344 303.5625 318.914062 303.792969 C 317.363281 303.128906 315.808594 302.460938 314.210938 301.777344 C 314.433594 301.554688 314.652344 301.332031 314.882812 301.105469 Z M 314.882812 301.105469 "/>
<path style=" stroke:none;fill-rule:nonzero;fill:rgb(39.215687%,39.215687%,38.82353%);fill-opacity:1;" d="M 417.042969 417.714844 C 418.628906 418.234375 420.207031 418.75 421.746094 419.394531 C 421.414062 419.726562 421.082031 420.058594 420.738281 420.402344 C 420.121094 420.019531 419.507812 419.632812 418.890625 419.25 C 418.546875 419.035156 418.203125 418.820312 417.851562 418.597656 C 417.585938 418.417969 417.316406 418.238281 417.042969 418.050781 C 417.042969 417.941406 417.042969 417.828125 417.042969 417.714844 Z M 417.042969 417.714844 "/>
<path style=" stroke:none;fill-rule:nonzero;fill:rgb(36.862746%,36.862746%,36.470589%);fill-opacity:1;" d="M 455.351562 436.871094 C 456.902344 437.3125 458.074219 437.949219 459.386719 438.886719 C 459.054688 439.050781 459.054688 439.050781 458.714844 439.222656 C 458.015625 438.976562 457.332031 438.699219 456.65625 438.402344 C 456.285156 438.246094 455.917969 438.085938 455.539062 437.921875 C 455.257812 437.796875 454.972656 437.671875 454.679688 437.542969 C 454.902344 437.320312 455.125 437.097656 455.351562 436.871094 Z M 455.351562 436.871094 "/>
<path style=" stroke:none;fill-rule:nonzero;fill:rgb(41.176471%,41.176471%,40.784314%);fill-opacity:1;" d="M 301.441406 251.03125 C 301.847656 252.257812 301.664062 252.488281 301.125 253.617188 C 300.996094 253.886719 300.871094 254.160156 300.738281 254.4375 C 300.636719 254.644531 300.535156 254.851562 300.433594 255.066406 C 300.046875 254.480469 300.046875 254.480469 299.761719 253.71875 C 300.0625 253 300.0625 253 300.558594 252.292969 C 300.71875 252.054688 300.882812 251.816406 301.050781 251.574219 C 301.179688 251.394531 301.308594 251.214844 301.441406 251.03125 Z M 301.441406 251.03125 "/>
<path style=" stroke:none;fill-rule:nonzero;fill:rgb(70.588237%,70.588237%,70.19608%);fill-opacity:1;" d="M 249.015625 268.171875 C 249.6875 268.507812 249.6875 268.507812 249.6875 268.507812 Z M 249.015625 268.171875 "/>
</g>
</svg>
