<?xml version="1.0" encoding="UTF-8"?>
<svg xmlns="http://www.w3.org/2000/svg" xmlns:xlink="http://www.w3.org/1999/xlink" width="130px" height="131px" viewBox="0 0 130 131" version="1.1">
<defs>
<clipPath id="clip1">
  <path d="M 34.761719 35.027344 L 95.238281 35.027344 L 95.238281 95.972656 L 34.761719 95.972656 Z M 34.761719 35.027344 "/>
</clipPath>
</defs>
<g id="surface1">
<path style=" stroke:none;fill-rule:nonzero;fill:rgb(0%,0%,0%);fill-opacity:1;" d="M 20.695312 13.648438 L 109.304688 13.648438 C 113.257812 13.648438 116.457031 16.871094 116.457031 20.851562 L 116.457031 110.148438 C 116.457031 114.128906 113.257812 117.351562 109.304688 117.351562 L 20.695312 117.351562 C 16.742188 117.351562 13.542969 114.128906 13.542969 110.148438 L 13.542969 20.851562 C 13.542969 16.871094 16.742188 13.648438 20.695312 13.648438 Z M 20.695312 13.648438 "/>
<g clip-path="url(#clip1)" clip-rule="nonzero">
<path style="fill:none;stroke-width:2;stroke-linecap:round;stroke-linejoin:round;stroke:rgb(100%,100%,100%);stroke-opacity:1;stroke-miterlimit:4;" d="M 19.998285 10 C 19.998285 4.477771 15.522077 0.00188888 10 0.00188888 C 4.477923 0.00188888 0.00171532 4.477771 0.00171532 10 C 0.00171532 15.522229 4.477923 19.998111 10 19.998111 C 15.522077 19.998111 19.998285 15.522229 19.998285 10 Z M 19.998285 10 " transform="matrix(2.748909,0,0,2.770054,37.51091,37.799455)"/>
<path style="fill:none;stroke-width:2;stroke-linecap:round;stroke-linejoin:round;stroke:rgb(100%,100%,100%);stroke-opacity:1;stroke-miterlimit:4;" d="M 0.00171532 10 L 19.998285 10 M 10 0.00188888 C 12.502413 2.73762 13.922011 6.291251 14.000167 10 C 13.922011 13.708749 12.502413 17.26238 10 19.998111 C 7.497587 17.26238 6.07799 13.708749 5.999834 10 C 6.07799 6.291251 7.497587 2.73762 10 0.00188888 Z M 10 0.00188888 " transform="matrix(2.748909,0,0,2.770054,37.51091,37.799455)"/>
</g>
</g>
</svg>
