<?xml version="1.0" encoding="UTF-8"?>
<svg xmlns="http://www.w3.org/2000/svg" xmlns:xlink="http://www.w3.org/1999/xlink" width="64px" height="64px" viewBox="0 0 64 64" version="1.1">
<defs>
<clipPath id="clip1">
  <path d="M 17.113281 17.113281 L 46.886719 17.113281 L 46.886719 46.886719 L 17.113281 46.886719 Z M 17.113281 17.113281 "/>
</clipPath>
</defs>
<g id="surface1">
<path style=" stroke:none;fill-rule:nonzero;fill:rgb(0%,0%,0%);fill-opacity:1;" d="M 10.1875 6.667969 L 53.8125 6.667969 C 55.757812 6.667969 57.332031 8.242188 57.332031 10.1875 L 57.332031 53.8125 C 57.332031 55.757812 55.757812 57.332031 53.8125 57.332031 L 10.1875 57.332031 C 8.242188 57.332031 6.667969 55.757812 6.667969 53.8125 L 6.667969 10.1875 C 6.667969 8.242188 8.242188 6.667969 10.1875 6.667969 Z M 10.1875 6.667969 "/>
<g clip-path="url(#clip1)" clip-rule="nonzero">
<path style="fill:none;stroke-width:2;stroke-linecap:round;stroke-linejoin:round;stroke:rgb(100%,100%,100%);stroke-opacity:1;stroke-miterlimit:4;" d="M 19.998639 10 C 19.998639 4.478234 15.521766 0.0013603 10 0.0013603 C 4.478234 0.0013603 0.0013603 4.478234 0.0013603 10 C 0.0013603 15.521766 4.478234 19.998639 10 19.998639 C 15.521766 19.998639 19.998639 15.521766 19.998639 10 Z M 19.998639 10 " transform="matrix(1.353309,0,0,1.353309,18.466909,18.466909)"/>
<path style="fill:none;stroke-width:2;stroke-linecap:round;stroke-linejoin:round;stroke:rgb(100%,100%,100%);stroke-opacity:1;stroke-miterlimit:4;" d="M 0.0013603 10 L 19.998639 10 M 10 0.0013603 C 12.502546 2.737709 13.922676 6.29092 14.00061 10 C 13.922676 13.709079 12.502546 17.262291 10 19.998639 C 7.497454 17.262291 6.077323 13.709079 5.999389 10 C 6.077323 6.29092 7.497454 2.737709 10 0.0013603 Z M 10 0.0013603 " transform="matrix(1.353309,0,0,1.353309,18.466909,18.466909)"/>
</g>
</g>
</svg>
